<svg width="40" height="40" viewBox="0 0 40 40" fill="none" xmlns="http://www.w3.org/2000/svg">
<rect width="40" height="40" rx="8" fill="#00DD7D"/>
<path d="M17.375 18.9153C17.489 18.8495 17.5837 18.7548 17.6496 18.6407C17.7154 18.5267 17.75 18.3973 17.75 18.2656V11.5156C17.7493 11.3961 17.7201 11.2784 17.6647 11.1724C17.6093 11.0664 17.5294 10.9752 17.4316 10.9064C17.3338 10.8376 17.2209 10.7932 17.1025 10.7769C16.984 10.7605 16.8634 10.7727 16.7506 10.8125C14.5615 11.5873 12.7206 13.1175 11.5588 15.1281C10.3969 17.1387 9.99037 19.4977 10.4122 21.7812C10.4341 21.8993 10.484 22.0104 10.5577 22.1052C10.6314 22.2 10.7269 22.2757 10.8359 22.3259C10.9342 22.3719 11.0415 22.3956 11.15 22.3953C11.2816 22.3954 11.411 22.3608 11.525 22.295L17.375 18.9153ZM16.25 12.6519V17.8325L11.7613 20.4228C11.75 20.2812 11.75 20.1388 11.75 20C11.7513 18.4797 12.1721 16.9893 12.9661 15.6928C13.7601 14.3963 14.8964 13.344 16.25 12.6519ZM20 10.25C19.8011 10.25 19.6103 10.329 19.4697 10.4697C19.329 10.6103 19.25 10.8011 19.25 11V19.6081L11.8616 23.9122C11.7758 23.9619 11.7008 24.0281 11.6408 24.107C11.5808 24.1858 11.537 24.2758 11.512 24.3717C11.487 24.4676 11.4812 24.5675 11.495 24.6656C11.5088 24.7638 11.542 24.8582 11.5925 24.9434C12.4585 26.4156 13.696 27.6344 15.1811 28.478C16.6663 29.3215 18.3469 29.7601 20.0549 29.7498C21.7628 29.7396 23.4381 29.2809 24.913 28.4196C26.3879 27.5583 27.6107 26.3247 28.4589 24.8422C29.3072 23.3598 29.7511 21.6805 29.7463 19.9726C29.7415 18.2646 29.2881 16.5879 28.4316 15.1102C27.575 13.6326 26.3453 12.4059 24.8655 11.5529C23.3858 10.6999 21.708 10.2506 20 10.25ZM20 28.25C18.6907 28.2465 17.4009 27.9331 16.236 27.3354C15.0711 26.7377 14.0643 25.8727 13.2978 24.8113L20.3778 20.6863C20.4917 20.6205 20.5863 20.5259 20.6521 20.4121C20.718 20.2982 20.7527 20.169 20.7528 20.0375V11.7838C22.8682 11.9757 24.8281 12.9761 26.2244 14.5768C27.6206 16.1774 28.3458 18.2549 28.2488 20.3768C28.1518 22.4987 27.2401 24.5013 25.7036 25.9679C24.167 27.4345 22.1241 28.2519 20 28.25Z" fill="#016624"/>
</svg>
