<svg width="40" height="40" viewBox="0 0 40 40" fill="none" xmlns="http://www.w3.org/2000/svg">
<rect width="40" height="40" rx="8" fill="#00DD7D"/>
<path d="M28.25 11.75H11.75C11.3522 11.75 10.9706 11.908 10.6893 12.1893C10.408 12.4706 10.25 12.8522 10.25 13.25V26.75C10.25 27.1478 10.408 27.5294 10.6893 27.8107C10.9706 28.092 11.3522 28.25 11.75 28.25H28.25C28.6478 28.25 29.0294 28.092 29.3107 27.8107C29.592 27.5294 29.75 27.1478 29.75 26.75V13.25C29.75 12.8522 29.592 12.4706 29.3107 12.1893C29.0294 11.908 28.6478 11.75 28.25 11.75ZM28.25 26.75H11.75V13.25H28.25V26.75ZM25.25 17C25.25 17.1989 25.171 17.3897 25.0303 17.5303C24.8897 17.671 24.6989 17.75 24.5 17.75H15.5C15.3011 17.75 15.1103 17.671 14.9697 17.5303C14.829 17.3897 14.75 17.1989 14.75 17C14.75 16.8011 14.829 16.6103 14.9697 16.4697C15.1103 16.329 15.3011 16.25 15.5 16.25H24.5C24.6989 16.25 24.8897 16.329 25.0303 16.4697C25.171 16.6103 25.25 16.8011 25.25 17ZM25.25 20C25.25 20.1989 25.171 20.3897 25.0303 20.5303C24.8897 20.671 24.6989 20.75 24.5 20.75H15.5C15.3011 20.75 15.1103 20.671 14.9697 20.5303C14.829 20.3897 14.75 20.1989 14.75 20C14.75 19.8011 14.829 19.6103 14.9697 19.4697C15.1103 19.329 15.3011 19.25 15.5 19.25H24.5C24.6989 19.25 24.8897 19.329 25.0303 19.4697C25.171 19.6103 25.25 19.8011 25.25 20ZM25.25 23C25.25 23.1989 25.171 23.3897 25.0303 23.5303C24.8897 23.671 24.6989 23.75 24.5 23.75H15.5C15.3011 23.75 15.1103 23.671 14.9697 23.5303C14.829 23.3897 14.75 23.1989 14.75 23C14.75 22.8011 14.829 22.6103 14.9697 22.4697C15.1103 22.329 15.3011 22.25 15.5 22.25H24.5C24.6989 22.25 24.8897 22.329 25.0303 22.4697C25.171 22.6103 25.25 22.8011 25.25 23Z" fill="#016624"/>
</svg>
