<svg width="40" height="40" viewBox="0 0 40 40" fill="none" xmlns="http://www.w3.org/2000/svg">
<rect width="40" height="40" rx="8" fill="#00DD7D"/>
<path d="M31.1244 19.5837L26.8438 13.1684C26.7075 12.963 26.5225 12.7944 26.3053 12.6778C26.088 12.5611 25.8453 12.5001 25.5988 12.5H11.75C11.3522 12.5 10.9706 12.658 10.6893 12.9393C10.408 13.2206 10.25 13.6022 10.25 14V26C10.25 26.3978 10.408 26.7794 10.6893 27.0607C10.9706 27.342 11.3522 27.5 11.75 27.5H25.5988C25.8451 27.4995 26.0876 27.4384 26.3047 27.322C26.5219 27.2056 26.707 27.0375 26.8438 26.8325L31.1216 20.4163C31.2042 20.2933 31.2486 20.1486 31.2491 20.0004C31.2496 19.8523 31.2062 19.7073 31.1244 19.5837ZM25.5988 26H11.75V14H25.5988L29.5981 20L25.5988 26Z" fill="#016624"/>
</svg>
