<svg width="40" height="40" viewBox="0 0 40 40" fill="none" xmlns="http://www.w3.org/2000/svg">
<rect width="40" height="40" rx="8" fill="#00DD7D"/>
<path d="M19.9983 16.2499C19.2566 16.2499 18.5316 16.4698 17.9149 16.8819C17.2982 17.2939 16.8176 17.8796 16.5337 18.5648C16.2499 19.25 16.1756 20.004 16.3203 20.7315C16.465 21.4589 16.8222 22.1271 17.3466 22.6515C17.8711 23.176 18.5393 23.5331 19.2667 23.6778C19.9941 23.8225 20.7481 23.7483 21.4333 23.4644C22.1186 23.1806 22.7042 22.7 23.1163 22.0833C23.5283 21.4666 23.7483 20.7416 23.7483 19.9999C23.7483 19.0053 23.3532 18.0515 22.6499 17.3482C21.9467 16.645 20.9928 16.2499 19.9983 16.2499ZM19.9983 22.2499C19.5533 22.2499 19.1183 22.1179 18.7482 21.8707C18.3782 21.6235 18.0898 21.2721 17.9196 20.8609C17.7493 20.4498 17.7047 19.9974 17.7915 19.5609C17.8783 19.1245 18.0926 18.7236 18.4073 18.4089C18.722 18.0942 19.1229 17.8799 19.5593 17.7931C19.9958 17.7063 20.4482 17.7509 20.8593 17.9212C21.2705 18.0915 21.6219 18.3798 21.8691 18.7499C22.1163 19.1199 22.2483 19.5549 22.2483 19.9999C22.2483 20.5966 22.0112 21.1689 21.5893 21.5909C21.1673 22.0128 20.595 22.2499 19.9983 22.2499ZM26.9086 22.9193C26.5864 23.6811 26.1403 24.3843 25.5886 25.0005C25.455 25.1451 25.2699 25.2313 25.0733 25.2406C24.8767 25.2499 24.6842 25.1816 24.5376 25.0503C24.3909 24.919 24.3017 24.7353 24.2893 24.5389C24.2769 24.3424 24.3422 24.1489 24.4711 24.0002C25.4559 22.9006 26.0004 21.4764 26.0004 20.0004C26.0004 18.5243 25.4559 17.1001 24.4711 16.0005C24.4036 15.9274 24.3512 15.8417 24.3172 15.7482C24.2831 15.6547 24.268 15.5554 24.2727 15.456C24.2774 15.3566 24.3019 15.2592 24.3446 15.1693C24.3873 15.0795 24.4475 14.999 24.5217 14.9327C24.5958 14.8663 24.6824 14.8153 24.7764 14.7828C24.8704 14.7502 24.97 14.7367 25.0693 14.743C25.1686 14.7493 25.2656 14.7752 25.3548 14.8194C25.4439 14.8636 25.5234 14.925 25.5886 15.0002C26.5356 16.0599 27.1624 17.3666 27.396 18.7685C27.6297 20.1703 27.4607 21.6097 26.9086 22.9193ZM14.467 17.6646C14.0245 18.7121 13.8888 19.8638 14.0757 20.9855C14.2626 22.1072 14.7644 23.1527 15.5227 24.0002C15.6516 24.1489 15.7169 24.3424 15.7045 24.5389C15.692 24.7353 15.6028 24.919 15.4562 25.0503C15.3095 25.1816 15.1171 25.2499 14.9205 25.2406C14.7238 25.2313 14.5388 25.1451 14.4052 25.0005C13.1738 23.6261 12.4929 21.8457 12.4929 20.0004C12.4929 18.155 13.1738 16.3746 14.4052 15.0002C14.5378 14.8516 14.724 14.7619 14.9229 14.7506C15.1217 14.7394 15.3169 14.8076 15.4655 14.9402C15.614 15.0729 15.7038 15.2591 15.7151 15.4579C15.7263 15.6568 15.6581 15.852 15.5255 16.0005C15.083 16.4928 14.7253 17.0551 14.467 17.6646ZM31.2483 19.9999C31.2528 22.9453 30.0981 25.7741 28.0336 27.8749C27.9653 27.9479 27.8831 28.0065 27.7918 28.0473C27.7005 28.0881 27.602 28.1102 27.502 28.1124C27.4021 28.1146 27.3027 28.0967 27.2097 28.0599C27.1167 28.0231 27.0321 27.968 26.9607 27.898C26.8893 27.828 26.8326 27.7444 26.794 27.6522C26.7554 27.56 26.7356 27.461 26.7358 27.361C26.7361 27.261 26.7563 27.1621 26.7953 27.07C26.8343 26.9779 26.8913 26.8946 26.963 26.8249C28.7505 25.0037 29.752 22.5537 29.752 20.0018C29.752 17.4499 28.7505 14.9999 26.963 13.1786C26.8232 13.0367 26.7456 12.845 26.7472 12.6458C26.7488 12.4466 26.8294 12.2562 26.9714 12.1165C27.1134 11.9767 27.305 11.8991 27.5042 11.9007C27.7034 11.9023 27.8939 11.9829 28.0336 12.1249C30.0981 14.2257 31.2528 17.0545 31.2483 19.9999ZM13.0336 26.823C13.1027 26.8933 13.1572 26.9765 13.1941 27.0679C13.231 27.1593 13.2496 27.257 13.2487 27.3556C13.2478 27.4541 13.2276 27.5515 13.189 27.6422C13.1505 27.733 13.0945 27.8152 13.0242 27.8843C12.9539 27.9533 12.8707 28.0079 12.7793 28.0448C12.688 28.0817 12.5902 28.1002 12.4917 28.0994C12.3931 28.0985 12.2957 28.0782 12.205 28.0397C12.1143 28.0012 12.032 27.9452 11.963 27.8749C9.89877 25.7735 8.74219 22.9456 8.74219 19.9999C8.74219 17.0542 9.89877 14.2263 11.963 12.1249C12.0313 12.0519 12.1135 11.9932 12.2048 11.9524C12.2961 11.9117 12.3946 11.8895 12.4945 11.8874C12.5945 11.8852 12.6939 11.9031 12.7869 11.9399C12.8798 11.9767 12.9645 12.0317 13.0359 12.1017C13.1073 12.1718 13.1639 12.2553 13.2025 12.3476C13.2411 12.4398 13.2609 12.5388 13.2607 12.6388C13.2605 12.7388 13.2403 12.8377 13.2013 12.9298C13.1623 13.0218 13.1053 13.1052 13.0336 13.1749C11.246 14.9961 10.2446 17.4461 10.2446 19.998C10.2446 22.5499 11.246 24.9999 13.0336 26.8211V26.823Z" fill="#016624"/>
</svg>
