<svg width="40" height="40" viewBox="0 0 40 40" fill="none" xmlns="http://www.w3.org/2000/svg">
<rect width="40" height="40" rx="8" fill="#00DD7D"/>
<path d="M29.75 27.5C29.75 27.6989 29.671 27.8897 29.5303 28.0303C29.3897 28.171 29.1989 28.25 29 28.25H11C10.8011 28.25 10.6103 28.171 10.4697 28.0303C10.329 27.8897 10.25 27.6989 10.25 27.5V12.5C10.25 12.3011 10.329 12.1103 10.4697 11.9697C10.6103 11.829 10.8011 11.75 11 11.75C11.1989 11.75 11.3897 11.829 11.5303 11.9697C11.671 12.1103 11.75 12.3011 11.75 12.5V21.3472L16.5059 17.1875C16.6354 17.0742 16.7998 17.0088 16.9717 17.0024C17.1435 16.9959 17.3124 17.0487 17.45 17.1519L22.9634 21.2872L28.5059 16.4375C28.5786 16.3656 28.6652 16.3092 28.7605 16.272C28.8557 16.2348 28.9575 16.2174 29.0597 16.221C29.1619 16.2245 29.2623 16.249 29.3547 16.2927C29.4471 16.3365 29.5296 16.3987 29.5971 16.4756C29.6645 16.5524 29.7156 16.6422 29.7471 16.7395C29.7786 16.8368 29.7899 16.9395 29.7802 17.0413C29.7706 17.1431 29.7402 17.2418 29.691 17.3315C29.6418 17.4211 29.5748 17.4997 29.4941 17.5625L23.4941 22.8125C23.3646 22.9258 23.2002 22.9912 23.0283 22.9976C22.8565 23.0041 22.6876 22.9513 22.55 22.8481L17.0366 18.7147L11.75 23.3403V26.75H29C29.1989 26.75 29.3897 26.829 29.5303 26.9697C29.671 27.1103 29.75 27.3011 29.75 27.5Z" fill="#016624"/>
</svg>
