<svg width="40" height="40" viewBox="0 0 40 40" fill="none" xmlns="http://www.w3.org/2000/svg">
<rect width="40" height="40" rx="8" fill="#00DD7D"/>
<path d="M29 17H25.25V13.25C25.25 13.0511 25.171 12.8603 25.0303 12.7197C24.8897 12.579 24.6989 12.5 24.5 12.5H13.25V11.75C13.25 11.5511 13.171 11.3603 13.0303 11.2197C12.8897 11.079 12.6989 11 12.5 11C12.3011 11 12.1103 11.079 11.9697 11.2197C11.829 11.3603 11.75 11.5511 11.75 11.75V28.25C11.75 28.4489 11.829 28.6397 11.9697 28.7803C12.1103 28.921 12.3011 29 12.5 29C12.6989 29 12.8897 28.921 13.0303 28.7803C13.171 28.6397 13.25 28.4489 13.25 28.25V27.5H21.5C21.6989 27.5 21.8897 27.421 22.0303 27.2803C22.171 27.1397 22.25 26.9489 22.25 26.75V23H29C29.1989 23 29.3897 22.921 29.5303 22.7803C29.671 22.6397 29.75 22.4489 29.75 22.25V17.75C29.75 17.5511 29.671 17.3603 29.5303 17.2197C29.3897 17.079 29.1989 17 29 17ZM23.75 14V17H13.25V14H23.75ZM20.75 26H13.25V23H20.75V26ZM28.25 21.5H13.25V18.5H28.25V21.5Z" fill="#016624"/>
</svg>
