<svg width="25" height="24" viewBox="0 0 25 24" fill="none" xmlns="http://www.w3.org/2000/svg">
<g opacity="0.7">
<path d="M20.9764 9.53055L13.4764 17.0306C13.4067 17.1003 13.324 17.1556 13.2329 17.1933C13.1419 17.2311 13.0443 17.2505 12.9457 17.2505C12.8472 17.2505 12.7496 17.2311 12.6585 17.1933C12.5675 17.1556 12.4848 17.1003 12.4151 17.0306L4.9151 9.53055C4.77437 9.38982 4.69531 9.19895 4.69531 8.99993C4.69531 8.80091 4.77437 8.61003 4.9151 8.4693C5.05584 8.32857 5.24671 8.24951 5.44573 8.24951C5.64475 8.24951 5.83562 8.32857 5.97635 8.4693L12.9457 15.4396L19.9151 8.4693C19.9848 8.39962 20.0675 8.34435 20.1586 8.30663C20.2496 8.26892 20.3472 8.24951 20.4457 8.24951C20.5443 8.24951 20.6419 8.26892 20.7329 8.30663C20.8239 8.34435 20.9067 8.39962 20.9764 8.4693C21.046 8.53899 21.1013 8.62171 21.139 8.71276C21.1767 8.8038 21.1961 8.90138 21.1961 8.99993C21.1961 9.09847 21.1767 9.19606 21.139 9.2871C21.1013 9.37815 21.046 9.46087 20.9764 9.53055Z" fill="#B5B9A8"/>
</g>
</svg>
