<svg width="32" height="32" viewBox="0 0 32 32" fill="none" xmlns="http://www.w3.org/2000/svg">
<path d="M22.8358 22.364L22.3643 22.8354C22.104 23.0957 21.6819 23.0957 21.4215 22.8354L16.0004 17.4142L10.5792 22.8353C10.3189 23.0957 9.89675 23.0957 9.6364 22.8353L9.16499 22.3639C8.90464 22.1036 8.90464 21.6815 9.16499 21.4211L14.5862 16L9.16499 10.5788C8.90464 10.3185 8.90464 9.89638 9.16499 9.63603L9.63639 9.16463C9.89674 8.90428 10.3189 8.90428 10.5792 9.16463L16.0004 14.5858L21.4215 9.16462C21.6819 8.90427 22.104 8.90427 22.3643 9.16462L22.8358 9.63602C23.0961 9.89637 23.0961 10.3185 22.8358 10.5788L17.4146 16L22.8358 21.4211C23.0961 21.6815 23.0961 22.1036 22.8358 22.364Z" fill="#B5B9A8"/>
</svg>
