<svg width="32" height="32" viewBox="0 0 32 32" fill="none" xmlns="http://www.w3.org/2000/svg">
<g filter="url(#filter0_i_915_8187)">
<rect width="32" height="32" rx="6" fill="url(#paint0_linear_915_8187)"/>
<rect x="0.5" y="0.5" width="31" height="31" rx="5.5" stroke="url(#paint1_linear_915_8187)"/>
<path d="M24.125 23.5H22.25V8.5H22.875C23.0408 8.5 23.1997 8.43415 23.3169 8.31694C23.4342 8.19973 23.5 8.04076 23.5 7.875C23.5 7.70924 23.4342 7.55027 23.3169 7.43306C23.1997 7.31585 23.0408 7.25 22.875 7.25H9.125C8.95924 7.25 8.80027 7.31585 8.68306 7.43306C8.56585 7.55027 8.5 7.70924 8.5 7.875C8.5 8.04076 8.56585 8.19973 8.68306 8.31694C8.80027 8.43415 8.95924 8.5 9.125 8.5H9.75V23.5H7.875C7.70924 23.5 7.55027 23.5658 7.43306 23.6831C7.31585 23.8003 7.25 23.9592 7.25 24.125C7.25 24.2908 7.31585 24.4497 7.43306 24.5669C7.55027 24.6842 7.70924 24.75 7.875 24.75H24.125C24.2908 24.75 24.4497 24.6842 24.5669 24.5669C24.6842 24.4497 24.75 24.2908 24.75 24.125C24.75 23.9592 24.6842 23.8003 24.5669 23.6831C24.4497 23.5658 24.2908 23.5 24.125 23.5ZM11 8.5H21V23.5H18.5V20.375C18.5 20.2092 18.4342 20.0503 18.3169 19.9331C18.1997 19.8158 18.0408 19.75 17.875 19.75H14.125C13.9592 19.75 13.8003 19.8158 13.6831 19.9331C13.5658 20.0503 13.5 20.2092 13.5 20.375V23.5H11V8.5ZM17.25 23.5H14.75V21H17.25V23.5ZM12.875 11C12.875 10.8342 12.9408 10.6753 13.0581 10.5581C13.1753 10.4408 13.3342 10.375 13.5 10.375H14.75C14.9158 10.375 15.0747 10.4408 15.1919 10.5581C15.3092 10.6753 15.375 10.8342 15.375 11C15.375 11.1658 15.3092 11.3247 15.1919 11.4419C15.0747 11.5592 14.9158 11.625 14.75 11.625H13.5C13.3342 11.625 13.1753 11.5592 13.0581 11.4419C12.9408 11.3247 12.875 11.1658 12.875 11ZM16.625 11C16.625 10.8342 16.6908 10.6753 16.8081 10.5581C16.9253 10.4408 17.0842 10.375 17.25 10.375H18.5C18.6658 10.375 18.8247 10.4408 18.9419 10.5581C19.0592 10.6753 19.125 10.8342 19.125 11C19.125 11.1658 19.0592 11.3247 18.9419 11.4419C18.8247 11.5592 18.6658 11.625 18.5 11.625H17.25C17.0842 11.625 16.9253 11.5592 16.8081 11.4419C16.6908 11.3247 16.625 11.1658 16.625 11ZM12.875 14.125C12.875 13.9592 12.9408 13.8003 13.0581 13.6831C13.1753 13.5658 13.3342 13.5 13.5 13.5H14.75C14.9158 13.5 15.0747 13.5658 15.1919 13.6831C15.3092 13.8003 15.375 13.9592 15.375 14.125C15.375 14.2908 15.3092 14.4497 15.1919 14.5669C15.0747 14.6842 14.9158 14.75 14.75 14.75H13.5C13.3342 14.75 13.1753 14.6842 13.0581 14.5669C12.9408 14.4497 12.875 14.2908 12.875 14.125ZM16.625 14.125C16.625 13.9592 16.6908 13.8003 16.8081 13.6831C16.9253 13.5658 17.0842 13.5 17.25 13.5H18.5C18.6658 13.5 18.8247 13.5658 18.9419 13.6831C19.0592 13.8003 19.125 13.9592 19.125 14.125C19.125 14.2908 19.0592 14.4497 18.9419 14.5669C18.8247 14.6842 18.6658 14.75 18.5 14.75H17.25C17.0842 14.75 16.9253 14.6842 16.8081 14.5669C16.6908 14.4497 16.625 14.2908 16.625 14.125ZM12.875 17.25C12.875 17.0842 12.9408 16.9253 13.0581 16.8081C13.1753 16.6908 13.3342 16.625 13.5 16.625H14.75C14.9158 16.625 15.0747 16.6908 15.1919 16.8081C15.3092 16.9253 15.375 17.0842 15.375 17.25C15.375 17.4158 15.3092 17.5747 15.1919 17.6919C15.0747 17.8092 14.9158 17.875 14.75 17.875H13.5C13.3342 17.875 13.1753 17.8092 13.0581 17.6919C12.9408 17.5747 12.875 17.4158 12.875 17.25ZM16.625 17.25C16.625 17.0842 16.6908 16.9253 16.8081 16.8081C16.9253 16.6908 17.0842 16.625 17.25 16.625H18.5C18.6658 16.625 18.8247 16.6908 18.9419 16.8081C19.0592 16.9253 19.125 17.0842 19.125 17.25C19.125 17.4158 19.0592 17.5747 18.9419 17.6919C18.8247 17.8092 18.6658 17.875 18.5 17.875H17.25C17.0842 17.875 16.9253 17.8092 16.8081 17.6919C16.6908 17.5747 16.625 17.4158 16.625 17.25Z" fill="#00DD7D"/>
</g>
<defs>
<filter id="filter0_i_915_8187" x="0" y="0" width="32" height="33" filterUnits="userSpaceOnUse" color-interpolation-filters="sRGB">
<feFlood flood-opacity="0" result="BackgroundImageFix"/>
<feBlend mode="normal" in="SourceGraphic" in2="BackgroundImageFix" result="shape"/>
<feColorMatrix in="SourceAlpha" type="matrix" values="0 0 0 0 0 0 0 0 0 0 0 0 0 0 0 0 0 0 127 0" result="hardAlpha"/>
<feOffset dy="1"/>
<feGaussianBlur stdDeviation="16"/>
<feComposite in2="hardAlpha" operator="arithmetic" k2="-1" k3="1"/>
<feColorMatrix type="matrix" values="0 0 0 0 0 0 0 0 0 0 0 0 0 0 0 0 0 0 0.25 0"/>
<feBlend mode="normal" in2="shape" result="effect1_innerShadow_915_8187"/>
</filter>
<linearGradient id="paint0_linear_915_8187" x1="-100" y1="-107.2" x2="85.2" y2="106.4" gradientUnits="userSpaceOnUse">
<stop offset="0.429472" stop-color="#001F11"/>
<stop offset="0.710902" stop-color="#007D47"/>
</linearGradient>
<linearGradient id="paint1_linear_915_8187" x1="16" y1="-12.4" x2="16" y2="64.8" gradientUnits="userSpaceOnUse">
<stop stop-color="#00CD74"/>
<stop offset="0.65" stop-color="#00673A"/>
</linearGradient>
</defs>
</svg>
