<svg width="106" height="80" viewBox="0 0 106 80" fill="none" xmlns="http://www.w3.org/2000/svg">
<path d="M97.5157 0.725098L96.9809 1.12034L73.2785 18.6589L69.9894 21.0903L42.5149 0.725098H24.5526L61.0082 27.7416L61.6589 28.2207L69.9734 34.389L84.0759 44.8451V31.5424L78.9506 27.7496L79.6332 27.2506L94.7895 16.0359V64.9667L79.6332 53.7521L66.4049 43.9587L61.7307 40.4973L55.9269 36.2015L32.2245 18.6629L8.54211 1.12034L8.01122 0.725098H0V79.7665H8.68182L32.2485 62.3278L35.8689 59.6409L63.008 79.7546H80.9704L44.5307 52.742L35.8808 46.3342L21.4391 35.6386V48.9413L26.8957 52.9816L25.8818 53.7321L10.7215 64.9468V16.028L25.8818 27.2426L39.0901 37.02L43.7803 40.4854L49.0692 44.3939L49.5802 44.7692L73.2825 62.3078L96.8452 79.7466H105.527V0.725098H97.5197H97.5157ZM69.9255 21.1422L69.9814 21.0943H69.9894L69.9255 21.1422Z" fill="#01DC82"/>
</svg>
