<svg width="32" height="32" viewBox="0 0 32 32" fill="none" xmlns="http://www.w3.org/2000/svg">
<path d="M2.04152 13.7586C2.04152 13.7586 16.1138 7.83156 20.9943 5.74452C22.8652 4.90977 29.2099 2.23834 29.2099 2.23834C29.2099 2.23834 32.1383 1.06969 31.8942 3.90795C31.8129 5.07672 31.1621 9.16716 30.5114 13.5916C29.5353 19.8526 28.4778 26.6979 28.4778 26.6979C28.4778 26.6979 28.3152 28.618 26.9324 28.9519C25.5496 29.2858 23.2719 27.7833 22.8652 27.4493C22.5398 27.1989 16.7645 23.4422 14.6496 21.6057C14.0802 21.1048 13.4295 20.1031 14.7309 18.9344C17.6593 16.1795 21.157 12.7569 23.2719 10.5864C24.248 9.58459 25.2241 7.24718 21.157 10.0854C15.3817 14.176 9.68773 18.0161 9.68773 18.0161C9.68773 18.0161 8.38621 18.8508 5.94596 18.0995C3.5056 17.3483 0.658608 16.3465 0.658608 16.3465C0.658608 16.3465 -1.2935 15.0943 2.04152 13.7586Z" fill="#34AADF"/>
</svg>
