<svg width="56" height="464" viewBox="0 0 56 464" fill="none" xmlns="http://www.w3.org/2000/svg">
<rect width="56" height="56" rx="12" fill="#016624"/>
<path d="M12 44L14.2939 35.4708C12.4439 32.1482 11.8562 28.2711 12.6385 24.5508C13.4208 20.8305 15.5207 17.5166 18.5529 15.2173C21.585 12.918 25.346 11.7874 29.1458 12.033C32.9455 12.2787 36.529 13.884 39.2388 16.5546C41.9487 19.2251 43.6029 22.7817 43.8981 26.5716C44.1933 30.3615 43.1096 34.1306 40.8459 37.1873C38.5822 40.2439 35.2903 42.383 31.5743 43.2121C27.8582 44.0412 23.9674 43.5046 20.6156 41.7009L12 44ZM21.0311 38.5092L21.5639 38.8248C23.9916 40.2614 26.8272 40.8558 29.6287 40.5156C32.4302 40.1753 35.0402 38.9194 37.0521 36.9436C39.064 34.9678 40.3647 32.383 40.7516 29.5922C41.1384 26.8013 40.5896 23.961 39.1907 21.514C37.7919 19.067 35.6215 17.1507 33.0178 16.0638C30.4141 14.9768 27.5234 14.7803 24.7961 15.5047C22.0689 16.2292 19.6583 17.8339 17.9399 20.069C16.2216 22.304 15.2921 25.0437 15.2963 27.8612C15.2941 30.1973 15.9412 32.4883 17.1658 34.479L17.4999 35.029L16.2175 39.7895L21.0311 38.5092Z" fill="white"/>
<path fill-rule="evenodd" clip-rule="evenodd" d="M33.9638 30.0511C33.6514 29.7995 33.2857 29.6225 32.8944 29.5335C32.5032 29.4444 32.0967 29.4457 31.706 29.5371C31.119 29.7806 30.7397 30.7002 30.3604 31.16C30.2804 31.2703 30.1629 31.3476 30.0299 31.3775C29.8969 31.4073 29.7575 31.3877 29.6379 31.3223C27.4888 30.482 25.6874 28.941 24.5263 26.9495C24.4273 26.8253 24.3804 26.6675 24.3956 26.5094C24.4108 26.3513 24.4868 26.2053 24.6076 26.102C25.0307 25.6839 25.3413 25.166 25.5107 24.5963C25.5484 23.9679 25.4041 23.342 25.0953 22.7931C24.8565 22.0236 24.4021 21.3385 23.7858 20.8186C23.4679 20.6759 23.1154 20.628 22.7709 20.6808C22.4264 20.7336 22.1045 20.8848 21.8441 21.1161C21.3921 21.5055 21.0333 21.9911 20.7942 22.5372C20.555 23.0834 20.4416 23.6761 20.4624 24.2718C20.4638 24.6063 20.5062 24.9393 20.5888 25.2635C20.7985 26.0424 21.121 26.7866 21.5461 27.4725C21.8528 27.9979 22.1874 28.5065 22.5485 28.9962C23.7222 30.6046 25.1974 31.9703 26.8925 33.0174C27.7431 33.5494 28.6521 33.982 29.6018 34.3067C30.5883 34.7531 31.6774 34.9244 32.7536 34.8025C33.3668 34.7099 33.9478 34.4682 34.4454 34.0987C34.943 33.7293 35.3421 33.2434 35.6074 32.6838C35.7634 32.3457 35.8107 31.9678 35.7429 31.6018C35.5804 30.8535 34.5779 30.4117 33.9638 30.0511Z" fill="white"/>
<path d="M22.6644 96C22.6644 93.0546 25.0508 90.6662 27.9954 90.6662C30.9399 90.6662 33.3276 93.0546 33.3276 96C33.3276 98.9454 30.9399 101.334 27.9954 101.334C25.0508 101.334 22.6644 98.9454 22.6644 96ZM19.7819 96C19.7819 100.538 23.4591 104.216 27.9954 104.216C32.5317 104.216 36.2088 100.538 36.2088 96C36.2088 91.4624 32.5317 87.7842 27.9954 87.7842C23.4591 87.7842 19.7819 91.4624 19.7819 96ZM34.6145 87.4584C34.6144 87.8382 34.7268 88.2094 34.9376 88.5253C35.1484 88.8411 35.448 89.0873 35.7987 89.2328C36.1494 89.3782 36.5353 89.4164 36.9077 89.3425C37.2801 89.2685 37.6221 89.0858 37.8907 88.8174C38.1592 88.549 38.3422 88.2069 38.4164 87.8345C38.4906 87.4621 38.4527 87.076 38.3076 86.7252C38.1625 86.3743 37.9166 86.0743 37.601 85.8632C37.2854 85.6521 36.9144 85.5394 36.5347 85.5392H36.534C36.0251 85.5394 35.5371 85.7417 35.1773 86.1015C34.8174 86.4614 34.615 86.9494 34.6145 87.4584V87.4584ZM21.5332 109.024C19.9738 108.953 19.1261 108.693 18.5628 108.473C17.816 108.182 17.2832 107.836 16.723 107.276C16.1628 106.717 15.816 106.184 15.5265 105.437C15.3069 104.874 15.0472 104.026 14.9763 102.466C14.8987 100.78 14.8833 100.273 14.8833 96.0001C14.8833 91.7274 14.9 91.2221 14.9763 89.5342C15.0473 87.9743 15.309 87.1278 15.5265 86.5629C15.8173 85.8159 16.1635 85.2829 16.723 84.7226C17.2824 84.1622 17.8148 83.8153 18.5628 83.5258C19.1259 83.3061 19.9738 83.0463 21.5332 82.9754C23.2193 82.8978 23.7258 82.8823 27.9954 82.8823C32.265 82.8823 32.772 82.8991 34.4594 82.9754C36.0189 83.0464 36.8651 83.3082 37.4298 83.5258C38.1766 83.8153 38.7095 84.1629 39.2697 84.7226C39.8299 85.2822 40.1754 85.8159 40.4661 86.5629C40.6857 87.1261 40.9455 87.9743 41.0164 89.5342C41.0939 91.2221 41.1094 91.7274 41.1094 96.0001C41.1094 100.273 41.0939 100.778 41.0164 102.466C40.9454 104.026 40.6843 104.874 40.4661 105.437C40.1754 106.184 39.8291 106.717 39.2697 107.276C38.7102 107.836 38.1766 108.182 37.4298 108.473C36.8668 108.693 36.0189 108.953 34.4594 109.024C32.7734 109.101 32.2669 109.117 27.9954 109.117C23.7238 109.117 23.2188 109.101 21.5332 109.024V109.024ZM21.4008 80.0969C19.698 80.1745 18.5344 80.4445 17.5183 80.8401C16.4659 81.2485 15.575 81.7965 14.6848 82.6856C13.7946 83.5747 13.2482 84.4672 12.8398 85.5199C12.4444 86.537 12.1744 87.7002 12.0969 89.4035C12.018 91.1095 12 91.6549 12 96C12 100.345 12.018 100.89 12.0969 102.596C12.1744 104.3 12.4444 105.463 12.8398 106.48C13.2482 107.532 13.7947 108.426 14.6848 109.314C15.5749 110.203 16.4659 110.75 17.5183 111.16C18.5364 111.555 19.698 111.826 21.4008 111.903C23.1072 111.981 23.6515 112 27.9954 112C32.3392 112 32.8845 111.982 34.59 111.903C36.2929 111.826 37.4557 111.555 38.4725 111.16C39.5242 110.75 40.4157 110.204 41.306 109.314C42.1962 108.425 42.7415 107.532 43.1509 106.48C43.5463 105.463 43.8176 104.3 43.8939 102.596C43.9714 100.889 43.9895 100.345 43.9895 96C43.9895 91.6549 43.9714 91.1095 43.8939 89.4035C43.8163 87.7001 43.5463 86.5363 43.1509 85.5199C42.7415 84.4678 42.1948 83.5761 41.306 82.6856C40.4171 81.7951 39.5242 81.2485 38.4738 80.8401C37.4557 80.4445 36.2928 80.1732 34.5912 80.0969C32.8857 80.0193 32.3405 80 27.9967 80C23.6528 80 23.1072 80.018 21.4008 80.0969Z" fill="#E0585B"/>
<path d="M22.6644 96C22.6644 93.0546 25.0508 90.6662 27.9954 90.6662C30.9399 90.6662 33.3276 93.0546 33.3276 96C33.3276 98.9454 30.9399 101.334 27.9954 101.334C25.0508 101.334 22.6644 98.9454 22.6644 96ZM19.7819 96C19.7819 100.538 23.4591 104.216 27.9954 104.216C32.5317 104.216 36.2088 100.538 36.2088 96C36.2088 91.4624 32.5317 87.7842 27.9954 87.7842C23.4591 87.7842 19.7819 91.4624 19.7819 96ZM34.6145 87.4584C34.6144 87.8382 34.7268 88.2094 34.9376 88.5253C35.1484 88.8411 35.448 89.0873 35.7987 89.2328C36.1494 89.3782 36.5353 89.4164 36.9077 89.3425C37.2801 89.2685 37.6221 89.0858 37.8907 88.8174C38.1592 88.549 38.3422 88.2069 38.4164 87.8345C38.4906 87.4621 38.4527 87.076 38.3076 86.7252C38.1625 86.3743 37.9166 86.0743 37.601 85.8632C37.2854 85.6521 36.9144 85.5394 36.5347 85.5392H36.534C36.0251 85.5394 35.5371 85.7417 35.1773 86.1015C34.8174 86.4614 34.615 86.9494 34.6145 87.4584V87.4584ZM21.5332 109.024C19.9738 108.953 19.1261 108.693 18.5628 108.473C17.816 108.182 17.2832 107.836 16.723 107.276C16.1628 106.717 15.816 106.184 15.5265 105.437C15.3069 104.874 15.0472 104.026 14.9763 102.466C14.8987 100.78 14.8833 100.273 14.8833 96.0001C14.8833 91.7274 14.9 91.2221 14.9763 89.5342C15.0473 87.9743 15.309 87.1278 15.5265 86.5629C15.8173 85.8159 16.1635 85.2829 16.723 84.7226C17.2824 84.1622 17.8148 83.8153 18.5628 83.5258C19.1259 83.3061 19.9738 83.0463 21.5332 82.9754C23.2193 82.8978 23.7258 82.8823 27.9954 82.8823C32.265 82.8823 32.772 82.8991 34.4594 82.9754C36.0189 83.0464 36.8651 83.3082 37.4298 83.5258C38.1766 83.8153 38.7095 84.1629 39.2697 84.7226C39.8299 85.2822 40.1754 85.8159 40.4661 86.5629C40.6857 87.1261 40.9455 87.9743 41.0164 89.5342C41.0939 91.2221 41.1094 91.7274 41.1094 96.0001C41.1094 100.273 41.0939 100.778 41.0164 102.466C40.9454 104.026 40.6843 104.874 40.4661 105.437C40.1754 106.184 39.8291 106.717 39.2697 107.276C38.7102 107.836 38.1766 108.182 37.4298 108.473C36.8668 108.693 36.0189 108.953 34.4594 109.024C32.7734 109.101 32.2669 109.117 27.9954 109.117C23.7238 109.117 23.2188 109.101 21.5332 109.024V109.024ZM21.4008 80.0969C19.698 80.1745 18.5344 80.4445 17.5183 80.8401C16.4659 81.2485 15.575 81.7965 14.6848 82.6856C13.7946 83.5747 13.2482 84.4672 12.8398 85.5199C12.4444 86.537 12.1744 87.7002 12.0969 89.4035C12.018 91.1095 12 91.6549 12 96C12 100.345 12.018 100.89 12.0969 102.596C12.1744 104.3 12.4444 105.463 12.8398 106.48C13.2482 107.532 13.7947 108.426 14.6848 109.314C15.5749 110.203 16.4659 110.75 17.5183 111.16C18.5364 111.555 19.698 111.826 21.4008 111.903C23.1072 111.981 23.6515 112 27.9954 112C32.3392 112 32.8845 111.982 34.59 111.903C36.2929 111.826 37.4557 111.555 38.4725 111.16C39.5242 110.75 40.4157 110.204 41.306 109.314C42.1962 108.425 42.7415 107.532 43.1509 106.48C43.5463 105.463 43.8176 104.3 43.8939 102.596C43.9714 100.889 43.9895 100.345 43.9895 96C43.9895 91.6549 43.9714 91.1095 43.8939 89.4035C43.8163 87.7001 43.5463 86.5363 43.1509 85.5199C42.7415 84.4678 42.1948 83.5761 41.306 82.6856C40.4171 81.7951 39.5242 81.2485 38.4738 80.8401C37.4557 80.4445 36.2928 80.1732 34.5912 80.0969C32.8857 80.0193 32.3405 80 27.9967 80C23.6528 80 23.1072 80.018 21.4008 80.0969Z" fill="url(#paint0_radial_269_257)"/>
<path d="M28 148C18.988 148 12 154.604 12 163.52C12 168.183 13.912 172.215 17.024 174.999C17.284 175.231 17.444 175.559 17.452 175.911L17.54 178.759C17.5464 178.969 17.6042 179.173 17.7083 179.355C17.8123 179.537 17.9595 179.691 18.1369 179.803C18.3142 179.915 18.5164 179.981 18.7254 179.997C18.9345 180.012 19.1442 179.976 19.336 179.891L22.512 178.491C22.78 178.371 23.084 178.351 23.368 178.427C24.828 178.827 26.38 179.043 28 179.043C37.012 179.043 44 172.439 44 163.524C44 154.608 37.012 148 28 148Z" fill="#7D4AFF"/>
<path d="M18.392 168.059L23.092 160.604C23.2688 160.323 23.5019 160.082 23.7765 159.896C24.0512 159.71 24.3614 159.583 24.6877 159.523C25.0139 159.462 25.3491 159.471 25.6721 159.546C25.995 159.622 26.2987 159.764 26.564 159.964L30.304 162.768C30.471 162.893 30.6741 162.96 30.8827 162.959C31.0912 162.958 31.2939 162.89 31.46 162.764L36.508 158.932C37.18 158.42 38.06 159.228 37.612 159.944L32.908 167.395C32.7312 167.676 32.4981 167.917 32.2235 168.103C31.9488 168.289 31.6386 168.416 31.3123 168.477C30.986 168.537 30.6509 168.529 30.3279 168.453C30.005 168.377 29.7013 168.235 29.436 168.035L25.696 165.232C25.529 165.107 25.3259 165.039 25.1173 165.04C24.9088 165.041 24.7061 165.109 24.54 165.236L19.492 169.067C18.82 169.579 17.94 168.775 18.392 168.059Z" fill="white"/>
<path d="M14.0415 230.759C14.0415 230.759 28.1138 224.832 32.9943 222.745C34.8652 221.91 41.2099 219.238 41.2099 219.238C41.2099 219.238 44.1383 218.07 43.8942 220.908C43.8129 222.077 43.1621 226.167 42.5114 230.592C41.5353 236.853 40.4778 243.698 40.4778 243.698C40.4778 243.698 40.3152 245.618 38.9324 245.952C37.5496 246.286 35.2719 244.783 34.8652 244.449C34.5398 244.199 28.7645 240.442 26.6496 238.606C26.0802 238.105 25.4295 237.103 26.7309 235.934C29.6593 233.18 33.157 229.757 35.2719 227.586C36.248 226.585 37.2241 224.247 33.157 227.085C27.3817 231.176 21.6877 235.016 21.6877 235.016C21.6877 235.016 20.3862 235.851 17.946 235.099C15.5056 234.348 12.6586 233.346 12.6586 233.346C12.6586 233.346 10.7065 232.094 14.0415 230.759Z" fill="#34AADF"/>
<path d="M40 290H16C15.7348 290 15.4804 290.105 15.2929 290.293C15.1054 290.48 15 290.735 15 291V308C15 308.53 15.2107 309.039 15.5858 309.414C15.9609 309.789 16.4696 310 17 310H39C39.5304 310 40.0391 309.789 40.4142 309.414C40.7893 309.039 41 308.53 41 308V291C41 290.735 40.8946 290.48 40.7071 290.293C40.5196 290.105 40.2652 290 40 290ZM39 308H17V293.274L27.3237 302.737C27.5082 302.907 27.7496 303.001 28 303.001C28.2504 303.001 28.4918 302.907 28.6763 302.737L39 293.274V308Z" fill="#B042C9"/>
<path d="M28 355C25.4288 355 22.9154 355.762 20.7776 357.191C18.6398 358.619 16.9735 360.65 15.9896 363.025C15.0056 365.401 14.7482 368.014 15.2498 370.536C15.7514 373.058 16.9895 375.374 18.8076 377.192C20.6257 379.01 22.9421 380.249 25.4638 380.75C27.9856 381.252 30.5995 380.994 32.9749 380.01C35.3503 379.026 37.3807 377.36 38.8091 375.222C40.2376 373.085 41 370.571 41 368C40.996 364.553 39.6251 361.249 37.188 358.812C34.7509 356.375 31.4466 355.004 28 355ZM37.795 363H33.3388C32.7776 360.941 31.8318 359.007 30.5513 357.3C32.0984 357.672 33.5469 358.373 34.7974 359.357C36.0479 360.341 37.0709 361.584 37.7963 363H37.795ZM39 368C39.0009 369.014 38.8608 370.024 38.5838 371H33.77C34.0767 369.012 34.0767 366.988 33.77 365H38.5838C38.8608 365.976 39.0009 366.986 39 368ZM28 357.375C29.4974 358.978 30.609 360.902 31.25 363H24.75C25.3904 360.902 26.502 358.978 28 357.375ZM24.75 373H31.25C30.6096 375.098 29.498 377.022 28 378.625C26.5026 377.022 25.391 375.098 24.75 373ZM24.2625 371C23.9192 369.015 23.9192 366.985 24.2625 365H31.7475C32.0908 366.985 32.0908 369.015 31.7475 371H24.2625ZM30.5563 378.7C31.8368 376.993 32.7826 375.059 33.3438 373H37.8013C37.0754 374.417 36.0516 375.66 34.8002 376.644C33.5488 377.627 32.0993 378.329 30.5513 378.7H30.5563Z" fill="#13CCC0"/>
<path d="M41 435.5C40.9964 438.814 39.6782 441.991 37.3348 444.335C34.9914 446.678 31.8141 447.996 28.5 448H18C17.4696 448 16.9609 447.789 16.5858 447.414C16.2107 447.039 16 446.53 16 446V435.5C16 432.185 17.317 429.005 19.6612 426.661C22.0054 424.317 25.1848 423 28.5 423C31.8152 423 34.9946 424.317 37.3388 426.661C39.683 429.005 41 432.185 41 435.5Z" fill="#C3C53B"/>
<defs>
<radialGradient id="paint0_radial_269_257" cx="0" cy="0" r="1" gradientUnits="userSpaceOnUse" gradientTransform="translate(31.401 113.585) scale(32.9136 32.9231)">
<stop offset="0.64" stop-color="#8C3AAA" stop-opacity="0"/>
<stop offset="1" stop-color="#8C3AAA"/>
</radialGradient>
</defs>
</svg>
