<svg width="32" height="32" viewBox="0 0 32 32" fill="none" xmlns="http://www.w3.org/2000/svg">
<path d="M15.9731 2.99512C13.4063 2.99512 10.8971 3.75626 8.76292 5.1823C6.6287 6.60834 4.96528 8.63522 3.98301 11.0066C3.00074 13.378 2.74373 15.9875 3.24449 18.505C3.74525 21.0224 4.98128 23.3349 6.79628 25.1499C8.61128 26.9649 10.9237 28.2009 13.4412 28.7017C15.9587 29.2024 18.5681 28.9454 20.9395 27.9632C23.311 26.9809 25.3378 25.3175 26.7639 23.1833C28.1899 21.049 28.9511 18.5399 28.9511 15.9731C28.9471 12.5323 27.5785 9.23364 25.1455 6.80065C22.7125 4.36767 19.4138 2.99908 15.9731 2.99512ZM25.7515 10.9816H21.3028C20.7426 8.92618 19.7984 6.99542 18.52 5.29122C20.0645 5.66225 21.5106 6.36287 22.759 7.34505C24.0074 8.32724 25.0286 9.56775 25.7527 10.9816H25.7515ZM26.9545 15.9731C26.9553 16.9858 26.8155 17.9938 26.5389 18.968H21.7333C22.0395 16.9831 22.0395 14.963 21.7333 12.9782H26.5389C26.8155 13.9524 26.9553 14.9604 26.9545 15.9731ZM15.9731 5.36609C17.468 6.96653 18.5777 8.88716 19.2176 10.9816H12.7286C13.3679 8.88688 14.4777 6.9661 15.9731 5.36609ZM12.7286 20.9646H19.2176C18.5783 23.0593 17.4685 24.9801 15.9731 26.5801C14.4782 24.9796 13.3685 23.059 12.7286 20.9646ZM12.2419 18.968C11.8992 16.9861 11.8992 14.9601 12.2419 12.9782H19.7142C20.057 14.9601 20.057 16.9861 19.7142 18.968H12.2419ZM18.525 26.655C19.8033 24.9508 20.7476 23.02 21.3078 20.9646H25.7577C25.0331 22.379 24.0111 23.6198 22.7618 24.602C21.5124 25.5843 20.0654 26.2846 18.52 26.655H18.525Z" fill="#13CCC0"/>
</svg>
