<svg width="32" height="32" viewBox="0 0 32 32" fill="none" xmlns="http://www.w3.org/2000/svg">
<path d="M27.9528 5.98975H3.99342C3.72866 5.98975 3.47473 6.09492 3.28751 6.28214C3.1003 6.46936 2.99512 6.72328 2.99512 6.98805V23.9592C2.99512 24.4888 3.20547 24.9966 3.57991 25.3711C3.95435 25.7455 4.46219 25.9559 4.99173 25.9559H26.9544C27.484 25.9559 27.9918 25.7455 28.3663 25.3711C28.7407 24.9966 28.9511 24.4888 28.9511 23.9592V6.98805C28.9511 6.72328 28.8459 6.46936 28.6587 6.28214C28.4714 6.09492 28.2175 5.98975 27.9528 5.98975ZM26.9544 23.9592H4.99173V9.25795L15.298 18.7057C15.4822 18.8747 15.7231 18.9685 15.9731 18.9685C16.2231 18.9685 16.464 18.8747 16.6482 18.7057L26.9544 9.25795V23.9592Z" fill="#B042C9"/>
</svg>
