<svg width="32" height="32" viewBox="0 0 32 32" fill="none" xmlns="http://www.w3.org/2000/svg">
<path d="M10.6499 16C10.6499 13.0546 13.033 10.6662 15.9735 10.6662C18.9141 10.6662 21.2985 13.0546 21.2985 16C21.2985 18.9454 18.9141 21.3338 15.9735 21.3338C13.033 21.3338 10.6499 18.9454 10.6499 16ZM7.77131 16C7.77131 20.5376 11.4434 24.2158 15.9735 24.2158C20.5036 24.2158 24.1757 20.5376 24.1757 16C24.1757 11.4624 20.5036 7.78419 15.9735 7.78419C11.4434 7.78419 7.77131 11.4624 7.77131 16ZM22.5836 7.45843C22.5835 7.83817 22.6957 8.20943 22.9062 8.52526C23.1167 8.84108 23.416 9.08729 23.7662 9.23275C24.1164 9.37822 24.5018 9.41639 24.8737 9.34246C25.2455 9.26852 25.5871 9.0858 25.8553 8.81739C26.1235 8.54898 26.3062 8.20694 26.3803 7.83453C26.4544 7.46211 26.4166 7.07605 26.2717 6.72516C26.1267 6.37426 25.8812 6.0743 25.566 5.8632C25.2509 5.65211 24.8803 5.53935 24.5012 5.5392H24.5005C23.9923 5.53944 23.505 5.74169 23.1456 6.10155C22.7862 6.4614 22.5841 6.94942 22.5836 7.45843V7.45843ZM9.52022 29.0236C7.96287 28.9526 7.1164 28.6927 6.55387 28.4732C5.8081 28.1824 5.27599 27.836 4.71654 27.2764C4.15708 26.7168 3.81077 26.1843 3.52172 25.4373C3.30243 24.8741 3.04302 24.026 2.97223 22.466C2.89479 20.7795 2.87932 20.2729 2.87932 16.0001C2.87932 11.7274 2.89606 11.2221 2.97223 9.53421C3.04315 7.97427 3.30448 7.12781 3.52172 6.56294C3.81205 5.81594 4.15785 5.28294 4.71654 4.72256C5.27523 4.16218 5.80682 3.8153 6.55387 3.52576C7.11614 3.30611 7.96287 3.04627 9.52022 2.97536C11.204 2.89779 11.7097 2.8823 15.9735 2.8823C20.2373 2.8823 20.7436 2.89907 22.4287 2.97536C23.9861 3.0464 24.8312 3.30816 25.3951 3.52576C26.1409 3.8153 26.673 4.16294 27.2324 4.72256C27.7919 5.28218 28.1369 5.81594 28.4273 6.56294C28.6465 7.12614 28.906 7.97427 28.9767 9.53421C29.0542 11.2221 29.0696 11.7274 29.0696 16.0001C29.0696 20.2729 29.0542 20.7781 28.9767 22.466C28.9058 24.026 28.6451 24.8739 28.4273 25.4373C28.1369 26.1843 27.7911 26.7173 27.2324 27.2764C26.6737 27.8355 26.1409 28.1824 25.3951 28.4732C24.8328 28.6929 23.9861 28.9527 22.4287 29.0236C20.745 29.1012 20.2392 29.1167 15.9735 29.1167C11.7078 29.1167 11.2034 29.1012 9.52022 29.0236V29.0236ZM9.38796 0.096896C7.68748 0.174464 6.52551 0.444544 5.51074 0.840064C4.45981 1.24851 3.57015 1.79648 2.68112 2.68557C1.7921 3.57466 1.24645 4.4672 0.838674 5.51987C0.443808 6.53696 0.174175 7.70022 0.0967357 9.40352C0.0180181 11.1095 0 11.6549 0 16C0 20.3451 0.0180181 20.8905 0.0967357 22.5965C0.174175 24.2999 0.443808 25.463 0.838674 26.4801C1.24645 27.5322 1.79223 28.4257 2.68112 29.3144C3.57002 30.2031 4.45981 30.7503 5.51074 31.1599C6.52742 31.5555 7.68748 31.8255 9.38796 31.9031C11.092 31.9807 11.6356 32 15.9735 32C20.3114 32 20.8559 31.982 22.5591 31.9031C24.2597 31.8255 25.4209 31.5555 26.4363 31.1599C27.4866 30.7503 28.3769 30.2035 29.2659 29.3144C30.155 28.4253 30.6995 27.5322 31.1084 26.4801C31.5032 25.463 31.7742 24.2998 31.8503 22.5965C31.9278 20.8892 31.9458 20.3451 31.9458 16C31.9458 11.6549 31.9278 11.1095 31.8503 9.40352C31.7729 7.7001 31.5032 6.53632 31.1084 5.51987C30.6995 4.46784 30.1535 3.57606 29.2659 2.68557C28.3783 1.79507 27.4866 1.24851 26.4376 0.840064C25.4209 0.444544 24.2596 0.173184 22.5604 0.096896C20.8572 0.019328 20.3127 0 15.9748 0C11.6369 0 11.092 0.018048 9.38796 0.096896Z" fill="#B937AA"/>
<path d="M10.6499 16C10.6499 13.0546 13.033 10.6662 15.9735 10.6662C18.9141 10.6662 21.2985 13.0546 21.2985 16C21.2985 18.9454 18.9141 21.3338 15.9735 21.3338C13.033 21.3338 10.6499 18.9454 10.6499 16ZM7.77131 16C7.77131 20.5376 11.4434 24.2158 15.9735 24.2158C20.5036 24.2158 24.1757 20.5376 24.1757 16C24.1757 11.4624 20.5036 7.78419 15.9735 7.78419C11.4434 7.78419 7.77131 11.4624 7.77131 16ZM22.5836 7.45843C22.5835 7.83817 22.6957 8.20943 22.9062 8.52526C23.1167 8.84108 23.416 9.08729 23.7662 9.23275C24.1164 9.37822 24.5018 9.41639 24.8737 9.34246C25.2455 9.26852 25.5871 9.0858 25.8553 8.81739C26.1235 8.54898 26.3062 8.20694 26.3803 7.83453C26.4544 7.46211 26.4166 7.07605 26.2717 6.72516C26.1267 6.37426 25.8812 6.0743 25.566 5.8632C25.2509 5.65211 24.8803 5.53935 24.5012 5.5392H24.5005C23.9923 5.53944 23.505 5.74169 23.1456 6.10155C22.7862 6.4614 22.5841 6.94942 22.5836 7.45843V7.45843ZM9.52022 29.0236C7.96287 28.9526 7.1164 28.6927 6.55387 28.4732C5.8081 28.1824 5.27599 27.836 4.71654 27.2764C4.15708 26.7168 3.81077 26.1843 3.52172 25.4373C3.30243 24.8741 3.04302 24.026 2.97223 22.466C2.89479 20.7795 2.87932 20.2729 2.87932 16.0001C2.87932 11.7274 2.89606 11.2221 2.97223 9.53421C3.04315 7.97427 3.30448 7.12781 3.52172 6.56294C3.81205 5.81594 4.15785 5.28294 4.71654 4.72256C5.27523 4.16218 5.80682 3.8153 6.55387 3.52576C7.11614 3.30611 7.96287 3.04627 9.52022 2.97536C11.204 2.89779 11.7097 2.8823 15.9735 2.8823C20.2373 2.8823 20.7436 2.89907 22.4287 2.97536C23.9861 3.0464 24.8312 3.30816 25.3951 3.52576C26.1409 3.8153 26.673 4.16294 27.2324 4.72256C27.7919 5.28218 28.1369 5.81594 28.4273 6.56294C28.6465 7.12614 28.906 7.97427 28.9767 9.53421C29.0542 11.2221 29.0696 11.7274 29.0696 16.0001C29.0696 20.2729 29.0542 20.7781 28.9767 22.466C28.9058 24.026 28.6451 24.8739 28.4273 25.4373C28.1369 26.1843 27.7911 26.7173 27.2324 27.2764C26.6737 27.8355 26.1409 28.1824 25.3951 28.4732C24.8328 28.6929 23.9861 28.9527 22.4287 29.0236C20.745 29.1012 20.2392 29.1167 15.9735 29.1167C11.7078 29.1167 11.2034 29.1012 9.52022 29.0236V29.0236ZM9.38796 0.096896C7.68748 0.174464 6.52551 0.444544 5.51074 0.840064C4.45981 1.24851 3.57015 1.79648 2.68112 2.68557C1.7921 3.57466 1.24645 4.4672 0.838674 5.51987C0.443808 6.53696 0.174175 7.70022 0.0967357 9.40352C0.0180181 11.1095 0 11.6549 0 16C0 20.3451 0.0180181 20.8905 0.0967357 22.5965C0.174175 24.2999 0.443808 25.463 0.838674 26.4801C1.24645 27.5322 1.79223 28.4257 2.68112 29.3144C3.57002 30.2031 4.45981 30.7503 5.51074 31.1599C6.52742 31.5555 7.68748 31.8255 9.38796 31.9031C11.092 31.9807 11.6356 32 15.9735 32C20.3114 32 20.8559 31.982 22.5591 31.9031C24.2597 31.8255 25.4209 31.5555 26.4363 31.1599C27.4866 30.7503 28.3769 30.2035 29.2659 29.3144C30.155 28.4253 30.6995 27.5322 31.1084 26.4801C31.5032 25.463 31.7742 24.2998 31.8503 22.5965C31.9278 20.8892 31.9458 20.3451 31.9458 16C31.9458 11.6549 31.9278 11.1095 31.8503 9.40352C31.7729 7.7001 31.5032 6.53632 31.1084 5.51987C30.6995 4.46784 30.1535 3.57606 29.2659 2.68557C28.3783 1.79507 27.4866 1.24851 26.4376 0.840064C25.4209 0.444544 24.2596 0.173184 22.5604 0.096896C20.8572 0.019328 20.3127 0 15.9748 0C11.6369 0 11.092 0.018048 9.38796 0.096896Z" fill="url(#paint0_radial_269_33)"/>
<defs>
<radialGradient id="paint0_radial_269_33" cx="0" cy="0" r="1" gradientUnits="userSpaceOnUse" gradientTransform="translate(19.3745 33.5848) scale(32.8687 32.9231)">
<stop offset="0.64" stop-color="#8C3AAA" stop-opacity="0"/>
<stop offset="1" stop-color="#8C3AAA"/>
</radialGradient>
</defs>
</svg>
