<svg width="32" height="32" viewBox="0 0 32 32" fill="none" xmlns="http://www.w3.org/2000/svg">
<path d="M0 32L2.29389 23.4708C0.443925 20.1482 -0.143827 16.2711 0.638486 12.5508C1.4208 8.8305 3.5207 5.51665 6.55286 3.21731C9.58501 0.917974 13.346 -0.212607 17.1458 0.0330315C20.9455 0.27867 24.529 1.88405 27.2388 4.55458C29.9487 7.22511 31.6029 10.7817 31.8981 14.5716C32.1933 18.3615 31.1096 22.1306 28.8459 25.1873C26.5822 28.2439 23.2903 30.383 19.5743 31.2121C15.8582 32.0412 11.9674 31.5047 8.61563 29.7009L0 32ZM9.03105 26.5092L9.56389 26.8248C11.9916 28.2614 14.8272 28.8558 17.6287 28.5156C20.4302 28.1753 23.0402 26.9194 25.0521 24.9436C27.064 22.9678 28.3647 20.383 28.7516 17.5922C29.1384 14.8013 28.5896 11.961 27.1907 9.51404C25.7919 7.06704 23.6215 5.15075 21.0178 4.06379C18.4141 2.97683 15.5234 2.78026 12.7961 3.50471C10.0689 4.22917 7.65826 5.83395 5.93994 8.06898C4.22163 10.304 3.29214 13.0437 3.29633 15.8612C3.29405 18.1973 3.94121 20.4883 5.16576 22.479L5.49991 23.029L4.2175 27.7895L9.03105 26.5092Z" fill="#00D95F"/>
<path fill-rule="evenodd" clip-rule="evenodd" d="M21.9638 18.0508C21.6514 17.7993 21.2857 17.6223 20.8944 17.5332C20.5032 17.4442 20.0967 17.4454 19.706 17.5369C19.119 17.7803 18.7397 18.7 18.3604 19.1598C18.2804 19.27 18.1629 19.3473 18.0299 19.3772C17.8969 19.4071 17.7575 19.3875 17.6379 19.3221C15.4888 18.4818 13.6874 16.9407 12.5263 14.9493C12.4273 14.825 12.3804 14.6672 12.3956 14.5091C12.4108 14.3511 12.4868 14.205 12.6076 14.1018C13.0307 13.6837 13.3413 13.1658 13.5107 12.5961C13.5484 11.9677 13.4041 11.3417 13.0953 10.7929C12.8565 10.0234 12.4021 9.33824 11.7858 8.81834C11.4679 8.67561 11.1154 8.62775 10.7709 8.68054C10.4264 8.73334 10.1045 8.88453 9.84412 9.11588C9.39209 9.50523 9.03329 9.99085 8.79416 10.537C8.55503 11.0831 8.44165 11.6758 8.46237 12.2715C8.46376 12.606 8.50622 12.9391 8.5888 13.2633C8.79851 14.0422 9.12101 14.7863 9.54609 15.4722C9.85278 15.9976 10.1874 16.5062 10.5485 16.9959C11.7222 18.6044 13.1974 19.9701 14.8925 21.0171C15.7431 21.5492 16.6521 21.9818 17.6018 22.3064C18.5883 22.7528 19.6774 22.9242 20.7536 22.8023C21.3668 22.7096 21.9478 22.4679 22.4454 22.0985C22.943 21.729 23.3421 21.2431 23.6074 20.6835C23.7634 20.3455 23.8107 19.9675 23.7429 19.6016C23.5804 18.8533 22.5779 18.4115 21.9638 18.0508Z" fill="#00D95F"/>
</svg>
