<svg width="32" height="32" viewBox="0 0 32 32" fill="none" xmlns="http://www.w3.org/2000/svg">
<path d="M10.6644 16C10.6644 13.0546 13.0508 10.6662 15.9954 10.6662C18.9399 10.6662 21.3276 13.0546 21.3276 16C21.3276 18.9454 18.9399 21.3338 15.9954 21.3338C13.0508 21.3338 10.6644 18.9454 10.6644 16ZM7.78195 16C7.78195 20.5376 11.4591 24.2158 15.9954 24.2158C20.5317 24.2158 24.2088 20.5376 24.2088 16C24.2088 11.4624 20.5317 7.78419 15.9954 7.78419C11.4591 7.78419 7.78195 11.4624 7.78195 16ZM22.6145 7.45843C22.6144 7.83817 22.7268 8.20943 22.9376 8.52526C23.1484 8.84108 23.448 9.08729 23.7987 9.23275C24.1494 9.37821 24.5353 9.41639 24.9077 9.34246C25.2801 9.26852 25.6221 9.0858 25.8907 8.81739C26.1592 8.54898 26.3422 8.20694 26.4164 7.83453C26.4906 7.46211 26.4527 7.07605 26.3076 6.72516C26.1625 6.37426 25.9166 6.0743 25.601 5.8632C25.2854 5.65211 24.9144 5.53935 24.5347 5.5392H24.534C24.0251 5.53944 23.5371 5.74169 23.1773 6.10155C22.8174 6.4614 22.615 6.94942 22.6145 7.45843ZM9.53325 29.0236C7.97376 28.9526 7.12613 28.6927 6.56284 28.4732C5.81605 28.1824 5.28321 27.836 4.72299 27.2764C4.16277 26.7168 3.81599 26.1843 3.52653 25.4373C3.30695 24.8741 3.04718 24.026 2.97629 22.466C2.89875 20.7795 2.88326 20.2729 2.88326 16.0001C2.88326 11.7274 2.90003 11.2221 2.97629 9.53421C3.04731 7.97427 3.309 7.12781 3.52653 6.56294C3.81727 5.81594 4.16353 5.28294 4.72299 4.72256C5.28244 4.16218 5.81477 3.8153 6.56284 3.52576C7.12588 3.30611 7.97376 3.04627 9.53325 2.97536C11.2193 2.89779 11.7258 2.8823 15.9954 2.8823C20.265 2.8823 20.772 2.89907 22.4594 2.97536C24.0189 3.0464 24.8651 3.30816 25.4298 3.52576C26.1766 3.8153 26.7095 4.16294 27.2697 4.72256C27.8299 5.28218 28.1754 5.81594 28.4661 6.56294C28.6857 7.12614 28.9455 7.97427 29.0164 9.53421C29.0939 11.2221 29.1094 11.7274 29.1094 16.0001C29.1094 20.2729 29.0939 20.7781 29.0164 22.466C28.9454 24.026 28.6843 24.8739 28.4661 25.4373C28.1754 26.1843 27.8291 26.7173 27.2697 27.2764C26.7102 27.8355 26.1766 28.1824 25.4298 28.4732C24.8668 28.6929 24.0189 28.9527 22.4594 29.0236C20.7734 29.1012 20.2669 29.1167 15.9954 29.1167C11.7238 29.1167 11.2188 29.1012 9.53325 29.0236ZM9.40081 0.096896C7.698 0.174464 6.53443 0.444544 5.51828 0.840064C4.46591 1.24851 3.57503 1.79648 2.68479 2.68557C1.79455 3.57466 1.24815 4.4672 0.839821 5.51987C0.444416 6.53696 0.174414 7.70022 0.096868 9.40352C0.0180428 11.1095 0 11.6549 0 16C0 20.3451 0.0180428 20.8905 0.096868 22.5965C0.174414 24.2999 0.444416 25.463 0.839821 26.4801C1.24815 27.5322 1.79468 28.4257 2.68479 29.3144C3.5749 30.2031 4.46591 30.7503 5.51828 31.1599C6.53635 31.5555 7.698 31.8255 9.40081 31.9031C11.1072 31.9807 11.6515 32 15.9954 32C20.3392 32 20.8845 31.982 22.59 31.9031C24.2929 31.8255 25.4557 31.5555 26.4725 31.1599C27.5242 30.7503 28.4157 30.2035 29.306 29.3144C30.1962 28.4253 30.7415 27.5322 31.1509 26.4801C31.5463 25.463 31.8176 24.2998 31.8939 22.5965C31.9714 20.8892 31.9895 20.3451 31.9895 16C31.9895 11.6549 31.9714 11.1095 31.8939 9.40352C31.8163 7.7001 31.5463 6.53632 31.1509 5.51987C30.7415 4.46784 30.1948 3.57606 29.306 2.68557C28.4171 1.79507 27.5242 1.24851 26.4738 0.840064C25.4557 0.444544 24.2928 0.173184 22.5912 0.096896C20.8857 0.019328 20.3405 0 15.9967 0C11.6528 0 11.1072 0.018048 9.40081 0.096896Z" fill="#B937AA"/>
<path d="M10.6644 16C10.6644 13.0546 13.0508 10.6662 15.9954 10.6662C18.9399 10.6662 21.3276 13.0546 21.3276 16C21.3276 18.9454 18.9399 21.3338 15.9954 21.3338C13.0508 21.3338 10.6644 18.9454 10.6644 16ZM7.78195 16C7.78195 20.5376 11.4591 24.2158 15.9954 24.2158C20.5317 24.2158 24.2088 20.5376 24.2088 16C24.2088 11.4624 20.5317 7.78419 15.9954 7.78419C11.4591 7.78419 7.78195 11.4624 7.78195 16ZM22.6145 7.45843C22.6144 7.83817 22.7268 8.20943 22.9376 8.52526C23.1484 8.84108 23.448 9.08729 23.7987 9.23275C24.1494 9.37821 24.5353 9.41639 24.9077 9.34246C25.2801 9.26852 25.6221 9.0858 25.8907 8.81739C26.1592 8.54898 26.3422 8.20694 26.4164 7.83453C26.4906 7.46211 26.4527 7.07605 26.3076 6.72516C26.1625 6.37426 25.9166 6.0743 25.601 5.8632C25.2854 5.65211 24.9144 5.53935 24.5347 5.5392H24.534C24.0251 5.53944 23.5371 5.74169 23.1773 6.10155C22.8174 6.4614 22.615 6.94942 22.6145 7.45843ZM9.53325 29.0236C7.97376 28.9526 7.12613 28.6927 6.56284 28.4732C5.81605 28.1824 5.28321 27.836 4.72299 27.2764C4.16277 26.7168 3.81599 26.1843 3.52653 25.4373C3.30695 24.8741 3.04718 24.026 2.97629 22.466C2.89875 20.7795 2.88326 20.2729 2.88326 16.0001C2.88326 11.7274 2.90003 11.2221 2.97629 9.53421C3.04731 7.97427 3.309 7.12781 3.52653 6.56294C3.81727 5.81594 4.16353 5.28294 4.72299 4.72256C5.28244 4.16218 5.81477 3.8153 6.56284 3.52576C7.12588 3.30611 7.97376 3.04627 9.53325 2.97536C11.2193 2.89779 11.7258 2.8823 15.9954 2.8823C20.265 2.8823 20.772 2.89907 22.4594 2.97536C24.0189 3.0464 24.8651 3.30816 25.4298 3.52576C26.1766 3.8153 26.7095 4.16294 27.2697 4.72256C27.8299 5.28218 28.1754 5.81594 28.4661 6.56294C28.6857 7.12614 28.9455 7.97427 29.0164 9.53421C29.0939 11.2221 29.1094 11.7274 29.1094 16.0001C29.1094 20.2729 29.0939 20.7781 29.0164 22.466C28.9454 24.026 28.6843 24.8739 28.4661 25.4373C28.1754 26.1843 27.8291 26.7173 27.2697 27.2764C26.7102 27.8355 26.1766 28.1824 25.4298 28.4732C24.8668 28.6929 24.0189 28.9527 22.4594 29.0236C20.7734 29.1012 20.2669 29.1167 15.9954 29.1167C11.7238 29.1167 11.2188 29.1012 9.53325 29.0236ZM9.40081 0.096896C7.698 0.174464 6.53443 0.444544 5.51828 0.840064C4.46591 1.24851 3.57503 1.79648 2.68479 2.68557C1.79455 3.57466 1.24815 4.4672 0.839821 5.51987C0.444416 6.53696 0.174414 7.70022 0.096868 9.40352C0.0180428 11.1095 0 11.6549 0 16C0 20.3451 0.0180428 20.8905 0.096868 22.5965C0.174414 24.2999 0.444416 25.463 0.839821 26.4801C1.24815 27.5322 1.79468 28.4257 2.68479 29.3144C3.5749 30.2031 4.46591 30.7503 5.51828 31.1599C6.53635 31.5555 7.698 31.8255 9.40081 31.9031C11.1072 31.9807 11.6515 32 15.9954 32C20.3392 32 20.8845 31.982 22.59 31.9031C24.2929 31.8255 25.4557 31.5555 26.4725 31.1599C27.5242 30.7503 28.4157 30.2035 29.306 29.3144C30.1962 28.4253 30.7415 27.5322 31.1509 26.4801C31.5463 25.463 31.8176 24.2998 31.8939 22.5965C31.9714 20.8892 31.9895 20.3451 31.9895 16C31.9895 11.6549 31.9714 11.1095 31.8939 9.40352C31.8163 7.7001 31.5463 6.53632 31.1509 5.51987C30.7415 4.46784 30.1948 3.57606 29.306 2.68557C28.4171 1.79507 27.5242 1.24851 26.4738 0.840064C25.4557 0.444544 24.2928 0.173184 22.5912 0.096896C20.8857 0.019328 20.3405 0 15.9967 0C11.6528 0 11.1072 0.018048 9.40081 0.096896Z" fill="url(#paint0_radial_109_317)"/>
<defs>
<radialGradient id="paint0_radial_109_317" cx="0" cy="0" r="1" gradientUnits="userSpaceOnUse" gradientTransform="translate(19.401 33.5848) scale(32.9136 32.9231)">
<stop offset="0.64" stop-color="#8C3AAA" stop-opacity="0"/>
<stop offset="1" stop-color="#8C3AAA"/>
</radialGradient>
</defs>
</svg>
