<svg width="40" height="40" viewBox="0 0 40 40" fill="none" xmlns="http://www.w3.org/2000/svg">
<rect width="40" height="40" rx="8" fill="#00DD7D"/>
<path d="M19.8828 10.25C17.9544 10.25 16.0694 10.8218 14.466 11.8932C12.8626 12.9645 11.6129 14.4873 10.875 16.2688C10.137 18.0504 9.94396 20.0108 10.3202 21.9021C10.6964 23.7934 11.625 25.5307 12.9885 26.8943C14.3521 28.2579 16.0894 29.1865 17.9807 29.5627C19.872 29.9389 21.8324 29.7458 23.614 29.0078C25.3956 28.2699 26.9183 27.0202 27.9896 25.4168C29.061 23.8134 29.6328 21.9284 29.6328 20C29.6301 17.415 28.602 14.9366 26.7741 13.1087C24.9462 11.2808 22.4678 10.2527 19.8828 10.25ZM20.6328 28.2153L20.6328 22.25L22.8828 22.25C23.0817 22.25 23.2725 22.171 23.4131 22.0303C23.5538 21.8897 23.6328 21.6989 23.6328 21.5C23.6328 21.3011 23.5538 21.1103 23.4131 20.9697C23.2725 20.829 23.0817 20.75 22.8828 20.75L20.6328 20.75L20.6328 18.5C20.6328 18.1022 20.7909 17.7206 21.0722 17.4393C21.3535 17.158 21.735 17 22.1328 17L23.6328 17C23.8317 17 24.0225 16.921 24.1631 16.7803C24.3038 16.6397 24.3828 16.4489 24.3828 16.25C24.3828 16.0511 24.3038 15.8603 24.1631 15.7197C24.0225 15.579 23.8317 15.5 23.6328 15.5L22.1328 15.5C21.3372 15.5 20.5741 15.8161 20.0115 16.3787C19.4489 16.9413 19.1328 17.7043 19.1328 18.5L19.1328 20.75L16.8828 20.75C16.6839 20.75 16.4931 20.829 16.3525 20.9697C16.2118 21.1103 16.1328 21.3011 16.1328 21.5C16.1328 21.6989 16.2118 21.8897 16.3525 22.0303C16.4931 22.171 16.6839 22.25 16.8828 22.25L19.1328 22.25L19.1328 28.2153C17.0186 28.0223 15.0601 27.0217 13.6648 25.4215C12.2695 23.8214 11.5448 21.7449 11.6414 19.6241C11.738 17.5032 12.6485 15.5013 14.1835 14.0346C15.7184 12.5679 17.7598 11.7495 19.8828 11.7495C22.0059 11.7495 24.0472 12.5679 25.5822 14.0346C27.1172 15.5013 28.0277 17.5032 28.1243 19.6241C28.2209 21.7449 27.4962 23.8214 26.1008 25.4215C24.7055 27.0217 22.7471 28.0223 20.6328 28.2153Z" fill="#016624"/>
</svg>
