<svg width="40" height="40" viewBox="0 0 40 40" fill="none" xmlns="http://www.w3.org/2000/svg">
<rect width="40" height="40" rx="8" fill="#00DD7D"/>
<path d="M29 12.5H11C10.8011 12.5 10.6103 12.579 10.4697 12.7197C10.329 12.8603 10.25 13.0511 10.25 13.25V26C10.25 26.3978 10.408 26.7794 10.6893 27.0607C10.9706 27.342 11.3522 27.5 11.75 27.5H28.25C28.6478 27.5 29.0294 27.342 29.3107 27.0607C29.592 26.7794 29.75 26.3978 29.75 26V13.25C29.75 13.0511 29.671 12.8603 29.5303 12.7197C29.3897 12.579 29.1989 12.5 29 12.5ZM20 20.4828L12.9284 14H27.0716L20 20.4828ZM17.2541 20L11.75 25.0447V14.9553L17.2541 20ZM18.3641 21.0172L19.4891 22.0531C19.6274 22.1801 19.8084 22.2506 19.9963 22.2506C20.1841 22.2506 20.3651 22.1801 20.5034 22.0531L21.6284 21.0172L27.0659 26H12.9284L18.3641 21.0172ZM22.7459 20L28.25 14.9544V25.0456L22.7459 20Z" fill="#016624"/>
</svg>
