<svg width="40" height="40" viewBox="0 0 40 40" fill="none" xmlns="http://www.w3.org/2000/svg">
<rect width="40" height="40" rx="8" fill="#00DD7D"/>
<path d="M28.7276 20C29.2804 19.5068 29.6311 18.8264 29.7122 18.0899C29.7933 17.3535 29.5991 16.6131 29.1668 16.0113C28.7346 15.4096 28.0949 14.9891 27.3711 14.8308C26.6473 14.6725 25.8906 14.7877 25.2466 15.1541V13.25C25.2459 12.641 25.0599 12.0465 24.7132 11.5458C24.3665 11.045 23.8756 10.6616 23.3057 10.4466C22.7358 10.2316 22.114 10.1951 21.5229 10.342C20.9319 10.4889 20.3995 10.8123 19.9966 11.2691C19.5034 10.7163 18.823 10.3655 18.0865 10.2844C17.3501 10.2033 16.6097 10.3976 16.0079 10.8299C15.4062 11.2621 14.9857 11.9017 14.8274 12.6255C14.6691 13.3493 14.7843 14.1061 15.1507 14.75H13.2466C12.6376 14.7507 12.0431 14.9368 11.5423 15.2835C11.0416 15.6302 10.6582 16.1211 10.4432 16.691C10.2281 17.2608 10.1917 17.8826 10.3386 18.4737C10.4855 19.0648 10.8089 19.5972 11.2657 20C10.7129 20.4933 10.3621 21.1737 10.281 21.9101C10.1999 22.6466 10.3942 23.387 10.8264 23.9888C11.2587 24.5905 11.8983 25.011 12.6221 25.1693C13.3459 25.3276 14.1027 25.2124 14.7466 24.846V26.75C14.7473 27.3591 14.9334 27.9536 15.2801 28.4543C15.6268 28.9551 16.1177 29.3385 16.6875 29.5535C17.2574 29.7685 17.8792 29.805 18.4703 29.6581C19.0614 29.5112 19.5938 29.1878 19.9966 28.731C20.4899 29.2838 21.1703 29.6346 21.9067 29.7157C22.6432 29.7968 23.3836 29.6025 23.9853 29.1702C24.5871 28.738 25.0076 28.0984 25.1659 27.3746C25.3241 26.6508 25.209 25.894 24.8426 25.25H26.7466C27.3557 25.2494 27.9501 25.0633 28.4509 24.7166C28.9517 24.3699 29.3351 23.879 29.5501 23.3091C29.7651 22.7393 29.8016 22.1175 29.6547 21.5264C29.5077 20.9353 29.1844 20.4029 28.7276 20ZM14.7466 22.25C14.7466 22.5467 14.6587 22.8367 14.4938 23.0834C14.329 23.3301 14.0947 23.5223 13.8207 23.6359C13.5466 23.7494 13.245 23.7791 12.954 23.7212C12.663 23.6633 12.3957 23.5205 12.186 23.3107C11.9762 23.1009 11.8333 22.8337 11.7754 22.5427C11.7176 22.2517 11.7473 21.9501 11.8608 21.676C11.9743 21.4019 12.1666 21.1677 12.4133 21.0028C12.6599 20.838 12.95 20.75 13.2466 20.75H14.7466V22.25ZM19.2466 26.75C19.2466 27.1479 19.0886 27.5294 18.8073 27.8107C18.526 28.092 18.1445 28.25 17.7466 28.25C17.3488 28.25 16.9673 28.092 16.686 27.8107C16.4047 27.5294 16.2466 27.1479 16.2466 26.75V22.25C16.2466 21.8522 16.4047 21.4707 16.686 21.1894C16.9673 20.9081 17.3488 20.75 17.7466 20.75H19.2466V26.75ZM19.2466 19.25H13.2466C12.8488 19.25 12.4673 19.092 12.186 18.8107C11.9047 18.5294 11.7466 18.1479 11.7466 17.75C11.7466 17.3522 11.9047 16.9707 12.186 16.6894C12.4673 16.4081 12.8488 16.25 13.2466 16.25H17.7466C18.1445 16.25 18.526 16.4081 18.8073 16.6894C19.0886 16.9707 19.2466 17.3522 19.2466 17.75V19.25ZM19.2466 14.75H17.7466C17.45 14.75 17.1599 14.6621 16.9133 14.4972C16.6666 14.3324 16.4743 14.0982 16.3608 13.8241C16.2473 13.55 16.2176 13.2484 16.2754 12.9574C16.3333 12.6664 16.4762 12.3992 16.686 12.1894C16.8957 11.9796 17.163 11.8367 17.454 11.7789C17.745 11.721 18.0466 11.7507 18.3207 11.8642C18.5947 11.9778 18.829 12.17 18.9938 12.4167C19.1587 12.6634 19.2466 12.9534 19.2466 13.25V14.75ZM20.7466 13.25C20.7466 12.8522 20.9047 12.4707 21.186 12.1894C21.4673 11.9081 21.8488 11.75 22.2466 11.75C22.6445 11.75 23.026 11.9081 23.3073 12.1894C23.5886 12.4707 23.7466 12.8522 23.7466 13.25V17.75C23.7466 18.1479 23.5886 18.5294 23.3073 18.8107C23.026 19.092 22.6445 19.25 22.2466 19.25H20.7466V13.25ZM22.2466 28.25C21.8488 28.25 21.4673 28.092 21.186 27.8107C20.9047 27.5294 20.7466 27.1479 20.7466 26.75V25.25H22.2466C22.6445 25.25 23.026 25.4081 23.3073 25.6894C23.5886 25.9707 23.7466 26.3522 23.7466 26.75C23.7466 27.1479 23.5886 27.5294 23.3073 27.8107C23.026 28.092 22.6445 28.25 22.2466 28.25ZM26.7466 23.75H22.2466C21.8488 23.75 21.4673 23.592 21.186 23.3107C20.9047 23.0294 20.7466 22.6479 20.7466 22.25V20.75H26.7466C27.1445 20.75 27.526 20.9081 27.8073 21.1894C28.0886 21.4707 28.2466 21.8522 28.2466 22.25C28.2466 22.6479 28.0886 23.0294 27.8073 23.3107C27.526 23.592 27.1445 23.75 26.7466 23.75ZM26.7466 19.25H25.2466V17.75C25.2466 17.4534 25.3346 17.1634 25.4994 16.9167C25.6642 16.67 25.8985 16.4778 26.1726 16.3642C26.4467 16.2507 26.7483 16.221 27.0393 16.2789C27.3302 16.3367 27.5975 16.4796 27.8073 16.6894C28.0171 16.8992 28.1599 17.1664 28.2178 17.4574C28.2757 17.7484 28.246 18.05 28.1324 18.3241C28.0189 18.5982 27.8267 18.8324 27.58 18.9972C27.3333 19.1621 27.0433 19.25 26.7466 19.25Z" fill="#016624"/>
</svg>
