<svg width="40" height="40" viewBox="0 0 40 40" fill="none" xmlns="http://www.w3.org/2000/svg">
<rect width="40" height="40" rx="8" fill="#00DD7D"/>
<path d="M28.25 12.5H11.75C11.3522 12.5 10.9706 12.658 10.6893 12.9393C10.408 13.2206 10.25 13.6022 10.25 14V29C10.2483 29.286 10.3292 29.5665 10.483 29.8076C10.6369 30.0488 10.8571 30.2404 11.1172 30.3594C11.3154 30.4517 11.5313 30.4997 11.75 30.5C12.1021 30.4992 12.4426 30.3736 12.7109 30.1456L12.7194 30.1391L15.7812 27.5H28.25C28.6478 27.5 29.0294 27.342 29.3107 27.0607C29.592 26.7794 29.75 26.3978 29.75 26V14C29.75 13.6022 29.592 13.2206 29.3107 12.9393C29.0294 12.658 28.6478 12.5 28.25 12.5ZM28.25 26H15.5C15.3199 26.0001 15.1459 26.065 15.0097 26.1828L11.75 29V14H28.25V26Z" fill="#016624"/>
</svg>
