<svg width="40" height="40" viewBox="0 0 40 40" fill="none" xmlns="http://www.w3.org/2000/svg">
<rect width="40" height="40" rx="8" fill="#00DD7D"/>
<g clip-path="url(#clip0_487_3058)">
<path d="M32 18.3076C32 12.9376 26.6169 8.56885 20 8.56885C13.3831 8.56885 8 12.938 8 18.3076C8 23.1215 12.269 27.1531 18.0357 27.9151C18.4265 27.9995 18.9583 28.1731 19.0933 28.5068C19.214 28.8106 19.172 29.2853 19.1319 29.5921L18.9605 30.6196C18.908 30.9233 18.7194 31.8061 20 31.2665C21.2806 30.7268 26.9105 27.197 29.4286 24.299H29.4282C31.1675 22.3925 32 20.4567 32 18.3076Z" fill="#016624"/>
<path d="M17.5599 15.7129H16.718C16.589 15.7129 16.4844 15.8179 16.4844 15.9466V21.1752C16.4844 21.2058 16.4904 21.2361 16.5022 21.2644C16.5139 21.2927 16.5312 21.3184 16.5529 21.34C16.5746 21.3616 16.6003 21.3787 16.6287 21.3903C16.657 21.4019 16.6874 21.4078 16.718 21.4077H17.5599C17.5905 21.4078 17.6209 21.4019 17.6492 21.3903C17.6775 21.3787 17.7033 21.3616 17.725 21.34C17.7467 21.3184 17.7639 21.2927 17.7757 21.2644C17.7875 21.2361 17.7935 21.2058 17.7935 21.1752V15.9499C17.7935 15.8213 17.6885 15.7163 17.5599 15.7163M23.3536 15.7126H22.5121C22.3827 15.7126 22.2781 15.8176 22.2781 15.9462V19.0527L19.8781 15.8164C19.8729 15.8082 19.8669 15.8003 19.8601 15.7928L19.8586 15.7913C19.8542 15.7862 19.8494 15.7815 19.8444 15.7771L19.8279 15.7621C19.8256 15.7606 19.8241 15.7591 19.8219 15.7576L19.8099 15.7493L19.8024 15.7448L19.79 15.7373C19.7878 15.7366 19.7847 15.7351 19.7825 15.7336C19.778 15.7313 19.7739 15.7291 19.769 15.7276C19.7641 15.7261 19.7638 15.7253 19.7615 15.7253C19.757 15.7231 19.7521 15.7223 19.7476 15.7208L19.7394 15.7186C19.7349 15.7178 19.7308 15.7163 19.7263 15.7156L19.7165 15.7141C19.7135 15.7133 19.7083 15.7126 19.7041 15.7126L19.6921 15.7118C19.6891 15.7118 19.6869 15.7114 19.6839 15.7114H18.8424C18.7134 15.7114 18.6088 15.8164 18.6088 15.9451V21.1737C18.6087 21.2043 18.6148 21.2346 18.6266 21.2629C18.6383 21.2912 18.6555 21.3169 18.6772 21.3385C18.699 21.3601 18.7247 21.3772 18.7531 21.3888C18.7814 21.4004 18.8117 21.4063 18.8424 21.4062H19.6839C19.8129 21.4062 19.9179 21.3019 19.9179 21.1737V18.0687L22.3167 21.3087C22.3329 21.3313 22.353 21.3508 22.376 21.3664C22.3828 21.3717 22.388 21.3747 22.3929 21.3777C22.3951 21.3792 22.3974 21.3807 22.3996 21.3814C22.4019 21.3822 22.4071 21.3852 22.4109 21.3867C22.4146 21.3882 22.4184 21.3897 22.4221 21.3919L22.4446 21.4002C22.4651 21.4058 22.4863 21.4086 22.5076 21.4084H23.3491C23.3798 21.4086 23.4101 21.4027 23.4384 21.3911C23.4668 21.3794 23.4925 21.3623 23.5143 21.3407C23.536 21.3191 23.5532 21.2934 23.5649 21.2652C23.5767 21.2369 23.5827 21.2066 23.5827 21.1759V15.9499C23.5827 15.8213 23.4778 15.7163 23.3491 15.7163" fill="#00DD7D"/>
<path d="M15.5338 20.0989H13.2463V15.9499C13.2463 15.8209 13.1413 15.7163 13.0126 15.7163H12.1711C12.0421 15.7163 11.9375 15.8213 11.9375 15.9499V21.1782C11.9375 21.2385 11.9609 21.2964 12.0027 21.3398C12.0072 21.3443 12.008 21.3458 12.0088 21.3466C12.0511 21.3867 12.1077 21.4118 12.17 21.4118H15.533C15.662 21.4118 15.7666 21.3068 15.7666 21.1782V20.3363C15.7666 20.2073 15.6624 20.1027 15.533 20.1027M28.0048 17.0224C28.1338 17.0224 28.2384 16.9174 28.2384 16.7888V15.9499C28.2384 15.8209 28.1341 15.7163 28.0048 15.7163H24.6418C24.5788 15.7163 24.5218 15.7414 24.4798 15.7823C24.4753 15.7861 24.4738 15.7876 24.473 15.7891C24.4329 15.8266 24.4081 15.8873 24.4081 15.9503V21.1789C24.4081 21.2392 24.4315 21.2972 24.4734 21.3406L24.4794 21.3466C24.5228 21.3884 24.5807 21.4118 24.641 21.4118H28.004C28.133 21.4118 28.2376 21.3068 28.2376 21.1782V20.3359C28.2376 20.2069 28.1334 20.1023 28.004 20.1023H25.7173V19.2184H28.004C28.0347 19.2186 28.0652 19.2126 28.0936 19.201C28.122 19.1893 28.1478 19.1721 28.1695 19.1503C28.1913 19.1286 28.2085 19.1028 28.2201 19.0744C28.2318 19.046 28.2378 19.0155 28.2376 18.9848V18.1399C28.2376 18.0109 28.1334 17.9059 28.004 17.9059H25.7173V17.0224H28.004H28.0048Z" fill="#00DD7D"/>
</g>
<defs>
<clipPath id="clip0_487_3058">
<rect width="24" height="24" fill="white" transform="translate(8 8)"/>
</clipPath>
</defs>
</svg>
