<svg width="40" height="40" viewBox="0 0 40 40" fill="none" xmlns="http://www.w3.org/2000/svg">
<rect width="40" height="40" rx="8" fill="#00DD7D"/>
<path d="M25.5878 21.5787L22.5878 20.0787C22.4697 20.0199 22.3381 19.9933 22.2065 20.0015C22.0748 20.0097 21.9476 20.0525 21.8378 20.1256L20.4606 21.0444C19.8284 20.6968 19.3081 20.1766 18.9606 19.5444L19.8793 18.1672C19.9524 18.0573 19.9952 17.9302 20.0035 17.7985C20.0117 17.6668 19.985 17.5353 19.9262 17.4172L18.4262 14.4172C18.364 14.2916 18.2679 14.186 18.1488 14.1123C18.0296 14.0385 17.8922 13.9996 17.7521 14C16.7576 14 15.8037 14.3951 15.1005 15.0984C14.3972 15.8016 14.0021 16.7554 14.0021 17.75C14.0046 19.9373 14.8746 22.0343 16.4212 23.5809C17.9679 25.1275 20.0649 25.9975 22.2521 26C22.7446 26 23.2322 25.903 23.6872 25.7145C24.1422 25.5261 24.5556 25.2499 24.9038 24.9017C25.252 24.5534 25.5282 24.14 25.7167 23.6851C25.9051 23.2301 26.0021 22.7425 26.0021 22.25C26.0022 22.1107 25.9635 21.9741 25.8903 21.8555C25.8171 21.7369 25.7124 21.6411 25.5878 21.5787ZM22.2521 24.5C20.4625 24.498 18.7468 23.7862 17.4813 22.5208C16.2159 21.2553 15.5041 19.5396 15.5021 17.75C15.502 17.2298 15.6821 16.7256 16.0118 16.3233C16.3415 15.9209 16.8005 15.6452 17.3106 15.5431L18.3868 17.6994L17.4709 19.0625C17.4024 19.1652 17.3604 19.2831 17.3484 19.406C17.3365 19.5288 17.355 19.6526 17.4024 19.7666C17.9391 21.0419 18.9536 22.0565 20.229 22.5931C20.3433 22.6426 20.4681 22.6629 20.5921 22.6521C20.7162 22.6413 20.8356 22.5998 20.9396 22.5312L22.3093 21.6181L24.4656 22.6944C24.3627 23.205 24.0858 23.6642 23.6821 23.9935C23.2785 24.3228 22.7731 24.5018 22.2521 24.5ZM20.0021 10.25C18.3188 10.2496 16.6641 10.6851 15.199 11.514C13.7339 12.3428 12.5084 13.5369 11.6417 14.98C10.775 16.423 10.2966 18.0659 10.2532 19.7486C10.2098 21.4314 10.6028 23.0967 11.394 24.5825L10.3299 27.7747C10.2418 28.039 10.229 28.3226 10.293 28.5938C10.357 28.8649 10.4952 29.1129 10.6922 29.3099C10.8892 29.5069 11.1372 29.6451 11.4084 29.7091C11.6795 29.7731 11.9631 29.7603 12.2274 29.6722L15.4196 28.6081C16.7272 29.3036 18.1761 29.6921 19.6562 29.744C21.1364 29.7959 22.6089 29.51 23.962 28.9079C25.3151 28.3057 26.5133 27.4033 27.4656 26.269C28.4178 25.1346 29.0992 23.7983 29.4579 22.3613C29.8166 20.9244 29.8432 19.4246 29.5357 17.9758C29.2282 16.527 28.5947 15.1673 27.6833 13.9999C26.7719 12.8325 25.6065 11.8881 24.2755 11.2384C22.9446 10.5886 21.4832 10.2506 20.0021 10.25ZM20.0021 28.25C18.5518 28.251 17.1269 27.8691 15.8715 27.1428C15.7796 27.0895 15.6774 27.0563 15.5717 27.0455C15.466 27.0347 15.3592 27.0464 15.2584 27.08L11.7521 28.25L12.9212 24.7438C12.9549 24.643 12.9668 24.5362 12.9561 24.4305C12.9455 24.3248 12.9125 24.2226 12.8593 24.1306C11.9499 22.5584 11.5848 20.7299 11.8206 18.929C12.0564 17.128 12.8799 15.4552 14.1635 14.1701C15.447 12.8849 17.1187 12.0593 18.9194 11.8212C20.7201 11.5831 22.549 11.9459 24.1224 12.8533C25.6958 13.7607 26.9258 15.162 27.6215 16.8398C28.3173 18.5176 28.4399 20.3781 27.9703 22.1327C27.5008 23.8873 26.4654 25.4379 25.0246 26.5439C23.5839 27.65 21.8185 28.2497 20.0021 28.25Z" fill="#016624"/>
</svg>
