<svg width="40" height="40" viewBox="0 0 40 40" fill="none" xmlns="http://www.w3.org/2000/svg">
<rect width="40" height="40" rx="8" fill="#00DD7D"/>
<path d="M29.4581 10.4551C29.3419 10.3548 29.2005 10.2881 29.0492 10.2621C28.8979 10.2362 28.7423 10.252 28.5994 10.308L9.59998 17.7433C9.33071 17.848 9.10275 18.0373 8.95041 18.2828C8.79806 18.5283 8.72959 18.8166 8.75529 19.1043C8.78098 19.3921 8.89947 19.6637 9.0929 19.8783C9.28633 20.0929 9.54423 20.2389 9.82779 20.2942L14.7506 21.2608V26.7498C14.7496 27.0488 14.8385 27.3412 15.0056 27.5891C15.1728 27.837 15.4106 28.029 15.6881 28.1401C15.9652 28.2533 16.27 28.2805 16.5627 28.2181C16.8555 28.1557 17.1227 28.0067 17.3297 27.7905L19.7034 25.3286L23.4694 28.6248C23.7411 28.8658 24.0915 28.9992 24.4547 28.9998C24.6138 28.9997 24.772 28.9747 24.9234 28.9258C25.1709 28.8472 25.3934 28.7053 25.5689 28.514C25.7444 28.3227 25.8668 28.0887 25.9237 27.8355L29.729 11.2811C29.7631 11.1318 29.7558 10.976 29.7081 10.8305C29.6604 10.685 29.574 10.5553 29.4581 10.4551ZM23.7262 13.8301L15.3272 19.8451L10.6772 18.933L23.7262 13.8301ZM16.2506 26.7498V22.2986L18.5747 24.3367L16.2506 26.7498ZM24.4565 27.4998L16.7053 20.703L27.8615 12.707L24.4565 27.4998Z" fill="#016624"/>
</svg>
