<svg width="40" height="40" viewBox="0 0 40 40" fill="none" xmlns="http://www.w3.org/2000/svg">
<rect width="40" height="40" rx="8" fill="#00DD7D"/>
<path d="M15.5 14C15.5 13.8011 15.579 13.6103 15.7197 13.4697C15.8603 13.329 16.0511 13.25 16.25 13.25H28.25C28.4489 13.25 28.6397 13.329 28.7803 13.4697C28.921 13.6103 29 13.8011 29 14C29 14.1989 28.921 14.3897 28.7803 14.5303C28.6397 14.671 28.4489 14.75 28.25 14.75H16.25C16.0511 14.75 15.8603 14.671 15.7197 14.5303C15.579 14.3897 15.5 14.1989 15.5 14ZM28.25 19.25H16.25C16.0511 19.25 15.8603 19.329 15.7197 19.4697C15.579 19.6103 15.5 19.8011 15.5 20C15.5 20.1989 15.579 20.3897 15.7197 20.5303C15.8603 20.671 16.0511 20.75 16.25 20.75H28.25C28.4489 20.75 28.6397 20.671 28.7803 20.5303C28.921 20.3897 29 20.1989 29 20C29 19.8011 28.921 19.6103 28.7803 19.4697C28.6397 19.329 28.4489 19.25 28.25 19.25ZM28.25 25.25H16.25C16.0511 25.25 15.8603 25.329 15.7197 25.4697C15.579 25.6103 15.5 25.8011 15.5 26C15.5 26.1989 15.579 26.3897 15.7197 26.5303C15.8603 26.671 16.0511 26.75 16.25 26.75H28.25C28.4489 26.75 28.6397 26.671 28.7803 26.5303C28.921 26.3897 29 26.1989 29 26C29 25.8011 28.921 25.6103 28.7803 25.4697C28.6397 25.329 28.4489 25.25 28.25 25.25ZM12.125 12.875C11.9025 12.875 11.685 12.941 11.5 13.0646C11.315 13.1882 11.1708 13.3639 11.0856 13.5695C11.0005 13.775 10.9782 14.0012 11.0216 14.2195C11.065 14.4377 11.1722 14.6382 11.3295 14.7955C11.4868 14.9528 11.6873 15.06 11.9055 15.1034C12.1238 15.1468 12.35 15.1245 12.5555 15.0394C12.7611 14.9542 12.9368 14.81 13.0604 14.625C13.184 14.44 13.25 14.2225 13.25 14C13.25 13.7016 13.1315 13.4155 12.9205 13.2045C12.7095 12.9935 12.4234 12.875 12.125 12.875ZM12.125 18.875C11.9025 18.875 11.685 18.941 11.5 19.0646C11.315 19.1882 11.1708 19.3639 11.0856 19.5695C11.0005 19.775 10.9782 20.0012 11.0216 20.2195C11.065 20.4377 11.1722 20.6382 11.3295 20.7955C11.4868 20.9528 11.6873 21.06 11.9055 21.1034C12.1238 21.1468 12.35 21.1245 12.5555 21.0394C12.7611 20.9542 12.9368 20.81 13.0604 20.625C13.184 20.44 13.25 20.2225 13.25 20C13.25 19.7016 13.1315 19.4155 12.9205 19.2045C12.7095 18.9935 12.4234 18.875 12.125 18.875ZM12.125 24.875C11.9025 24.875 11.685 24.941 11.5 25.0646C11.315 25.1882 11.1708 25.3639 11.0856 25.5695C11.0005 25.775 10.9782 26.0012 11.0216 26.2195C11.065 26.4377 11.1722 26.6382 11.3295 26.7955C11.4868 26.9528 11.6873 27.06 11.9055 27.1034C12.1238 27.1468 12.35 27.1245 12.5555 27.0394C12.7611 26.9542 12.9368 26.81 13.0604 26.625C13.184 26.44 13.25 26.2225 13.25 26C13.25 25.7016 13.1315 25.4155 12.9205 25.2045C12.7095 24.9935 12.4234 24.875 12.125 24.875Z" fill="#016624"/>
</svg>
