<svg width="40" height="40" viewBox="0 0 40 40" fill="none" xmlns="http://www.w3.org/2000/svg">
<rect width="40" height="40" rx="8" fill="#00DD7D"/>
<path d="M30.8103 20.75L21.5 11.4397C21.3612 11.2998 21.196 11.1889 21.014 11.1134C20.832 11.0379 20.6368 10.9994 20.4397 11H11.75C11.5511 11 11.3603 11.079 11.2197 11.2197C11.079 11.3603 11 11.5511 11 11.75V20.4397C10.9994 20.6368 11.0379 20.832 11.1134 21.014C11.1889 21.196 11.2998 21.3612 11.4397 21.5L20.75 30.8103C20.8893 30.9496 21.0547 31.0602 21.2367 31.1356C21.4187 31.211 21.6138 31.2498 21.8108 31.2498C22.0078 31.2498 22.2029 31.211 22.3849 31.1356C22.5669 31.0602 22.7323 30.9496 22.8716 30.8103L30.8103 22.8716C30.9496 22.7323 31.0602 22.5669 31.1356 22.3849C31.211 22.2029 31.2498 22.0078 31.2498 21.8108C31.2498 21.6138 31.211 21.4187 31.1356 21.2367C31.0602 21.0547 30.9496 20.8893 30.8103 20.75ZM21.8103 29.75L12.5 20.4397V12.5H20.4397L29.75 21.8103L21.8103 29.75ZM17 15.875C17 16.0975 16.934 16.315 16.8104 16.5C16.6868 16.685 16.5111 16.8292 16.3055 16.9144C16.1 16.9995 15.8738 17.0218 15.6555 16.9784C15.4373 16.935 15.2368 16.8278 15.0795 16.6705C14.9222 16.5132 14.815 16.3127 14.7716 16.0945C14.7282 15.8763 14.7505 15.6501 14.8356 15.4445C14.9208 15.2389 15.065 15.0632 15.25 14.9396C15.435 14.816 15.6525 14.75 15.875 14.75C16.1734 14.75 16.4595 14.8685 16.6705 15.0795C16.8815 15.2905 17 15.5766 17 15.875Z" fill="#016624"/>
</svg>
