<svg width="40" height="40" viewBox="0 0 40 40" fill="none" xmlns="http://www.w3.org/2000/svg">
<rect width="40" height="40" rx="8" fill="#00DD7D"/>
<path d="M28.0306 15.7194L22.7806 10.4694C22.7109 10.3997 22.6282 10.3445 22.5371 10.3069C22.4461 10.2693 22.3485 10.2499 22.25 10.25H13.25C12.8522 10.25 12.4706 10.408 12.1893 10.6893C11.908 10.9706 11.75 11.3522 11.75 11.75V28.25C11.75 28.6478 11.908 29.0294 12.1893 29.3107C12.4706 29.592 12.8522 29.75 13.25 29.75H26.75C27.1478 29.75 27.5294 29.592 27.8107 29.3107C28.092 29.0294 28.25 28.6478 28.25 28.25V16.25C28.2501 16.1515 28.2307 16.0539 28.1931 15.9629C28.1555 15.8718 28.1003 15.7891 28.0306 15.7194ZM23 12.8103L25.6897 15.5H23V12.8103ZM26.75 28.25H18.5V26.75H19.25C19.4489 26.75 19.6397 26.671 19.7803 26.5303C19.921 26.3897 20 26.1989 20 26C20 25.8011 19.921 25.6103 19.7803 25.4697C19.6397 25.329 19.4489 25.25 19.25 25.25H18.5V23.75H19.25C19.4489 23.75 19.6397 23.671 19.7803 23.5303C19.921 23.3897 20 23.1989 20 23C20 22.8011 19.921 22.6103 19.7803 22.4697C19.6397 22.329 19.4489 22.25 19.25 22.25H18.5V20.75H19.25C19.4489 20.75 19.6397 20.671 19.7803 20.5303C19.921 20.3897 20 20.1989 20 20C20 19.8011 19.921 19.6103 19.7803 19.4697C19.6397 19.329 19.4489 19.25 19.25 19.25H18.5V18.5C18.5 18.3011 18.421 18.1103 18.2803 17.9697C18.1397 17.829 17.9489 17.75 17.75 17.75C17.5511 17.75 17.3603 17.829 17.2197 17.9697C17.079 18.1103 17 18.3011 17 18.5V19.25H16.25C16.0511 19.25 15.8603 19.329 15.7197 19.4697C15.579 19.6103 15.5 19.8011 15.5 20C15.5 20.1989 15.579 20.3897 15.7197 20.5303C15.8603 20.671 16.0511 20.75 16.25 20.75H17V22.25H16.25C16.0511 22.25 15.8603 22.329 15.7197 22.4697C15.579 22.6103 15.5 22.8011 15.5 23C15.5 23.1989 15.579 23.3897 15.7197 23.5303C15.8603 23.671 16.0511 23.75 16.25 23.75H17V25.25H16.25C16.0511 25.25 15.8603 25.329 15.7197 25.4697C15.579 25.6103 15.5 25.8011 15.5 26C15.5 26.1989 15.579 26.3897 15.7197 26.5303C15.8603 26.671 16.0511 26.75 16.25 26.75H17V28.25H13.25V11.75H21.5V16.25C21.5 16.4489 21.579 16.6397 21.7197 16.7803C21.8603 16.921 22.0511 17 22.25 17H26.75V28.25Z" fill="#016624"/>
</svg>
