<svg width="40" height="40" viewBox="0 0 40 40" fill="none" xmlns="http://www.w3.org/2000/svg">
<rect width="40" height="40" rx="8" fill="#00DD7D"/>
<path d="M26.75 15.0912V11.75C26.75 11.3522 26.592 10.9706 26.3107 10.6893C26.0294 10.408 25.6478 10.25 25.25 10.25H14.75C14.3522 10.25 13.9706 10.408 13.6893 10.6893C13.408 10.9706 13.25 11.3522 13.25 11.75V15.125C13.2505 15.3578 13.3049 15.5873 13.409 15.7955C13.5132 16.0037 13.6641 16.1849 13.85 16.325L18.7503 20L13.85 23.675C13.6641 23.8151 13.5132 23.9963 13.409 24.2045C13.3049 24.4127 13.2505 24.6422 13.25 24.875V28.25C13.25 28.6478 13.408 29.0294 13.6893 29.3107C13.9706 29.592 14.3522 29.75 14.75 29.75H25.25C25.6478 29.75 26.0294 29.592 26.3107 29.3107C26.592 29.0294 26.75 28.6478 26.75 28.25V24.9088C26.7495 24.6769 26.6955 24.4482 26.5922 24.2406C26.489 24.033 26.3393 23.8519 26.1547 23.7116L21.2441 20L26.1547 16.2875C26.3393 16.1474 26.4891 15.9666 26.5924 15.7591C26.6957 15.5516 26.7496 15.323 26.75 15.0912ZM25.25 28.25H14.75V24.875L20 20.9375L25.25 24.9078V28.25ZM25.25 15.0912L20 19.0625L14.75 15.125V11.75H25.25V15.0912Z" fill="#016624"/>
</svg>
