<svg width="40" height="40" viewBox="0 0 40 40" fill="none" xmlns="http://www.w3.org/2000/svg">
<rect width="40" height="40" rx="8" fill="#00DD7D"/>
<path d="M27.5 11H12.5C12.1022 11 11.7206 11.158 11.4393 11.4393C11.158 11.7206 11 12.1022 11 12.5V27.5C11 27.8978 11.158 28.2794 11.4393 28.5607C11.7206 28.842 12.1022 29 12.5 29H22.6897C22.8867 29.0006 23.082 28.9621 23.264 28.8866C23.446 28.8111 23.6112 28.7002 23.75 28.5603L28.5603 23.75C28.7002 23.6112 28.8111 23.446 28.8866 23.264C28.9621 23.082 29.0006 22.8867 29 22.6897V12.5C29 12.1022 28.842 11.7206 28.5607 11.4393C28.2794 11.158 27.8978 11 27.5 11ZM12.5 12.5H27.5V22.25H23C22.8011 22.25 22.6103 22.329 22.4697 22.4697C22.329 22.6103 22.25 22.8011 22.25 23V27.5H12.5V12.5ZM26.4397 23.75L23.75 26.4397V23.75H26.4397Z" fill="#016624"/>
</svg>
