<svg width="40" height="40" viewBox="0 0 40 40" fill="none" xmlns="http://www.w3.org/2000/svg">
<rect width="40" height="40" rx="8" fill="#00DD7D"/>
<path d="M16.25 17C16.25 16.8011 16.329 16.6103 16.4697 16.4697C16.6103 16.329 16.8011 16.25 17 16.25H23C23.1989 16.25 23.3897 16.329 23.5303 16.4697C23.671 16.6103 23.75 16.8011 23.75 17C23.75 17.1989 23.671 17.3897 23.5303 17.5303C23.3897 17.671 23.1989 17.75 23 17.75H17C16.8011 17.75 16.6103 17.671 16.4697 17.5303C16.329 17.3897 16.25 17.1989 16.25 17ZM17 20.75H23C23.1989 20.75 23.3897 20.671 23.5303 20.5303C23.671 20.3897 23.75 20.1989 23.75 20C23.75 19.8011 23.671 19.6103 23.5303 19.4697C23.3897 19.329 23.1989 19.25 23 19.25H17C16.8011 19.25 16.6103 19.329 16.4697 19.4697C16.329 19.6103 16.25 19.8011 16.25 20C16.25 20.1989 16.329 20.3897 16.4697 20.5303C16.6103 20.671 16.8011 20.75 17 20.75ZM20 22.25H17C16.8011 22.25 16.6103 22.329 16.4697 22.4697C16.329 22.6103 16.25 22.8011 16.25 23C16.25 23.1989 16.329 23.3897 16.4697 23.5303C16.6103 23.671 16.8011 23.75 17 23.75H20C20.1989 23.75 20.3897 23.671 20.5303 23.5303C20.671 23.3897 20.75 23.1989 20.75 23C20.75 22.8011 20.671 22.6103 20.5303 22.4697C20.3897 22.329 20.1989 22.25 20 22.25ZM29 12.5V22.6897C29.0006 22.8867 28.9621 23.082 28.8866 23.264C28.8111 23.446 28.7002 23.6112 28.5603 23.75L23.75 28.5603C23.6112 28.7002 23.446 28.8111 23.264 28.8866C23.082 28.9621 22.8867 29.0006 22.6897 29H12.5C12.1022 29 11.7206 28.842 11.4393 28.5607C11.158 28.2794 11 27.8978 11 27.5V12.5C11 12.1022 11.158 11.7206 11.4393 11.4393C11.7206 11.158 12.1022 11 12.5 11H27.5C27.8978 11 28.2794 11.158 28.5607 11.4393C28.842 11.7206 29 12.1022 29 12.5ZM12.5 27.5H22.25V23C22.25 22.8011 22.329 22.6103 22.4697 22.4697C22.6103 22.329 22.8011 22.25 23 22.25H27.5V12.5H12.5V27.5ZM23.75 23.75V26.4406L26.4397 23.75H23.75Z" fill="#016624"/>
</svg>
