<svg width="32" height="32" viewBox="0 0 32 32" fill="none" xmlns="http://www.w3.org/2000/svg">
<path d="M16 0C6.988 0 0 6.60382 0 15.5196C0 20.1834 1.912 24.2153 5.024 26.9993C5.284 27.2313 5.444 27.5592 5.452 27.9112L5.54 30.7592C5.54641 30.9687 5.60419 31.1735 5.70827 31.3555C5.81234 31.5374 5.95953 31.6911 6.13689 31.8029C6.31425 31.9146 6.51635 31.9812 6.72544 31.9965C6.93452 32.0119 7.14418 31.9757 7.336 31.8911L10.512 30.4912C10.78 30.3712 11.084 30.3512 11.368 30.4272C12.828 30.8272 14.38 31.0431 16 31.0431C25.012 31.0431 32 24.4393 32 15.5236C32 6.60782 25.012 0 16 0Z" fill="#7D4AFF"/>
<path d="M6.392 20.0595L11.092 12.6037C11.2688 12.3229 11.5019 12.0819 11.7765 11.8959C12.0512 11.7098 12.3614 11.5827 12.6877 11.5225C13.0139 11.4624 13.3491 11.4705 13.6721 11.5465C13.995 11.6224 14.2987 11.7645 14.564 11.9637L18.304 14.7676C18.471 14.8926 18.6741 14.9598 18.8827 14.9591C19.0912 14.9584 19.2939 14.8897 19.46 14.7636L24.508 10.9317C25.18 10.4197 26.06 11.2277 25.612 11.9437L20.908 19.3955C20.7312 19.6762 20.4981 19.9172 20.2235 20.1033C19.9488 20.2893 19.6386 20.4165 19.3123 20.4766C18.986 20.5367 18.6509 20.5286 18.3279 20.4527C18.005 20.3767 17.7013 20.2347 17.436 20.0354L13.696 17.2315C13.529 17.1065 13.3259 17.0393 13.1173 17.04C12.9088 17.0407 12.7061 17.1094 12.54 17.2355L7.492 21.0674C6.82 21.5794 5.94 20.7754 6.392 20.0595Z" fill="white"/>
</svg>
