<svg width="40" height="40" viewBox="0 0 40 40" fill="none" xmlns="http://www.w3.org/2000/svg">
<g filter="url(#filter0_i_915_8870)">
<rect width="40" height="40" rx="8" fill="url(#paint0_linear_915_8870)"/>
<rect x="0.5" y="0.5" width="39" height="39" rx="7.5" stroke="url(#paint1_linear_915_8870)"/>
<path d="M26.75 23.75C26.7488 24.9431 26.2743 26.087 25.4306 26.9306C24.587 27.7743 23.4431 28.2488 22.25 28.25H20.75V29.75C20.75 29.9489 20.671 30.1397 20.5303 30.2803C20.3897 30.421 20.1989 30.5 20 30.5C19.8011 30.5 19.6103 30.421 19.4697 30.2803C19.329 30.1397 19.25 29.9489 19.25 29.75V28.25H17.75C16.5569 28.2488 15.413 27.7743 14.5694 26.9306C13.7257 26.087 13.2512 24.9431 13.25 23.75C13.25 23.5511 13.329 23.3603 13.4697 23.2197C13.6103 23.079 13.8011 23 14 23C14.1989 23 14.3897 23.079 14.5303 23.2197C14.671 23.3603 14.75 23.5511 14.75 23.75C14.75 24.5456 15.0661 25.3087 15.6287 25.8713C16.1913 26.4339 16.9544 26.75 17.75 26.75H22.25C23.0456 26.75 23.8087 26.4339 24.3713 25.8713C24.9339 25.3087 25.25 24.5456 25.25 23.75C25.25 22.9544 24.9339 22.1913 24.3713 21.6287C23.8087 21.0661 23.0456 20.75 22.25 20.75H18.5C17.3065 20.75 16.1619 20.2759 15.318 19.432C14.4741 18.5881 14 17.4435 14 16.25C14 15.0565 14.4741 13.9119 15.318 13.068C16.1619 12.2241 17.3065 11.75 18.5 11.75H19.25V10.25C19.25 10.0511 19.329 9.86032 19.4697 9.71967C19.6103 9.57902 19.8011 9.5 20 9.5C20.1989 9.5 20.3897 9.57902 20.5303 9.71967C20.671 9.86032 20.75 10.0511 20.75 10.25V11.75H21.5C22.6931 11.7512 23.837 12.2257 24.6806 13.0694C25.5243 13.913 25.9988 15.0569 26 16.25C26 16.4489 25.921 16.6397 25.7803 16.7803C25.6397 16.921 25.4489 17 25.25 17C25.0511 17 24.8603 16.921 24.7197 16.7803C24.579 16.6397 24.5 16.4489 24.5 16.25C24.5 15.4544 24.1839 14.6913 23.6213 14.1287C23.0587 13.5661 22.2956 13.25 21.5 13.25H18.5C17.7044 13.25 16.9413 13.5661 16.3787 14.1287C15.8161 14.6913 15.5 15.4544 15.5 16.25C15.5 17.0456 15.8161 17.8087 16.3787 18.3713C16.9413 18.9339 17.7044 19.25 18.5 19.25H22.25C23.4431 19.2512 24.587 19.7257 25.4306 20.5694C26.2743 21.413 26.7488 22.5569 26.75 23.75Z" fill="#DEE04A"/>
</g>
<defs>
<filter id="filter0_i_915_8870" x="0" y="0" width="40" height="41" filterUnits="userSpaceOnUse" color-interpolation-filters="sRGB">
<feFlood flood-opacity="0" result="BackgroundImageFix"/>
<feBlend mode="normal" in="SourceGraphic" in2="BackgroundImageFix" result="shape"/>
<feColorMatrix in="SourceAlpha" type="matrix" values="0 0 0 0 0 0 0 0 0 0 0 0 0 0 0 0 0 0 127 0" result="hardAlpha"/>
<feOffset dy="1"/>
<feGaussianBlur stdDeviation="16"/>
<feComposite in2="hardAlpha" operator="arithmetic" k2="-1" k3="1"/>
<feColorMatrix type="matrix" values="0 0 0 0 0 0 0 0 0 0 0 0 0 0 0 0 0 0 0.25 0"/>
<feBlend mode="normal" in2="shape" result="effect1_innerShadow_915_8870"/>
</filter>
<linearGradient id="paint0_linear_915_8870" x1="-125" y1="-134" x2="106.5" y2="133" gradientUnits="userSpaceOnUse">
<stop offset="0.492986" stop-color="#23231D"/>
<stop offset="0.847063" stop-color="#DEE04A"/>
</linearGradient>
<linearGradient id="paint1_linear_915_8870" x1="20" y1="-15.5" x2="20" y2="81" gradientUnits="userSpaceOnUse">
<stop stop-color="#DEE04A"/>
<stop offset="0.65" stop-color="#555550"/>
</linearGradient>
</defs>
</svg>
