<svg width="40" height="40" viewBox="0 0 40 40" fill="none" xmlns="http://www.w3.org/2000/svg">
<rect width="40" height="40" rx="8" fill="#00DD7D"/>
<path d="M29.75 19.25H28.9681C28.7882 17.1307 27.8645 15.1434 26.3606 13.6394C24.8566 12.1355 22.8693 11.2118 20.75 11.0319V10.25C20.75 10.0511 20.671 9.86032 20.5303 9.71967C20.3897 9.57902 20.1989 9.5 20 9.5C19.8011 9.5 19.6103 9.57902 19.4697 9.71967C19.329 9.86032 19.25 10.0511 19.25 10.25V11.0319C17.1307 11.2118 15.1434 12.1355 13.6394 13.6394C12.1355 15.1434 11.2118 17.1307 11.0319 19.25H10.25C10.0511 19.25 9.86032 19.329 9.71967 19.4697C9.57902 19.6103 9.5 19.8011 9.5 20C9.5 20.1989 9.57902 20.3897 9.71967 20.5303C9.86032 20.671 10.0511 20.75 10.25 20.75H11.0319C11.2118 22.8693 12.1355 24.8566 13.6394 26.3606C15.1434 27.8645 17.1307 28.7882 19.25 28.9681V29.75C19.25 29.9489 19.329 30.1397 19.4697 30.2803C19.6103 30.421 19.8011 30.5 20 30.5C20.1989 30.5 20.3897 30.421 20.5303 30.2803C20.671 30.1397 20.75 29.9489 20.75 29.75V28.9681C22.8693 28.7882 24.8566 27.8645 26.3606 26.3606C27.8645 24.8566 28.7882 22.8693 28.9681 20.75H29.75C29.9489 20.75 30.1397 20.671 30.2803 20.5303C30.421 20.3897 30.5 20.1989 30.5 20C30.5 19.8011 30.421 19.6103 30.2803 19.4697C30.1397 19.329 29.9489 19.25 29.75 19.25ZM20.75 27.4625V26.75C20.75 26.5511 20.671 26.3603 20.5303 26.2197C20.3897 26.079 20.1989 26 20 26C19.8011 26 19.6103 26.079 19.4697 26.2197C19.329 26.3603 19.25 26.5511 19.25 26.75V27.4625C17.5296 27.287 15.9223 26.5233 14.6995 25.3005C13.4767 24.0777 12.713 22.4704 12.5375 20.75H13.25C13.4489 20.75 13.6397 20.671 13.7803 20.5303C13.921 20.3897 14 20.1989 14 20C14 19.8011 13.921 19.6103 13.7803 19.4697C13.6397 19.329 13.4489 19.25 13.25 19.25H12.5375C12.713 17.5296 13.4767 15.9223 14.6995 14.6995C15.9223 13.4767 17.5296 12.713 19.25 12.5375V13.25C19.25 13.4489 19.329 13.6397 19.4697 13.7803C19.6103 13.921 19.8011 14 20 14C20.1989 14 20.3897 13.921 20.5303 13.7803C20.671 13.6397 20.75 13.4489 20.75 13.25V12.5375C22.4704 12.713 24.0777 13.4767 25.3005 14.6995C26.5233 15.9223 27.287 17.5296 27.4625 19.25H26.75C26.5511 19.25 26.3603 19.329 26.2197 19.4697C26.079 19.6103 26 19.8011 26 20C26 20.1989 26.079 20.3897 26.2197 20.5303C26.3603 20.671 26.5511 20.75 26.75 20.75H27.4625C27.287 22.4704 26.5233 24.0777 25.3005 25.3005C24.0777 26.5233 22.4704 27.287 20.75 27.4625ZM20 16.25C19.2583 16.25 18.5333 16.4699 17.9166 16.882C17.2999 17.294 16.8193 17.8797 16.5355 18.5649C16.2516 19.2502 16.1774 20.0042 16.3221 20.7316C16.4667 21.459 16.8239 22.1272 17.3483 22.6517C17.8728 23.1761 18.541 23.5333 19.2684 23.6779C19.9958 23.8226 20.7498 23.7484 21.4351 23.4645C22.1203 23.1807 22.706 22.7001 23.118 22.0834C23.5301 21.4667 23.75 20.7417 23.75 20C23.75 19.0054 23.3549 18.0516 22.6517 17.3483C21.9484 16.6451 20.9946 16.25 20 16.25ZM20 22.25C19.555 22.25 19.12 22.118 18.75 21.8708C18.38 21.6236 18.0916 21.2722 17.9213 20.861C17.751 20.4499 17.7064 19.9975 17.7932 19.561C17.88 19.1246 18.0943 18.7237 18.409 18.409C18.7237 18.0943 19.1246 17.88 19.561 17.7932C19.9975 17.7064 20.4499 17.751 20.861 17.9213C21.2722 18.0916 21.6236 18.38 21.8708 18.75C22.118 19.12 22.25 19.555 22.25 20C22.25 20.5967 22.0129 21.169 21.591 21.591C21.169 22.0129 20.5967 22.25 20 22.25Z" fill="#016624"/>
</svg>
