<svg width="40" height="40" viewBox="0 0 40 40" fill="none" xmlns="http://www.w3.org/2000/svg">
<rect width="40" height="40" rx="8" fill="#00DD7D"/>
<path d="M27.4119 14.8129C26.4397 13.8385 25.2842 13.0662 24.0121 12.5405C22.74 12.0148 21.3764 11.7462 20 11.75H19.9625C14.1941 11.7697 9.5 16.5313 9.5 22.356V24.5C9.5 24.8979 9.65804 25.2794 9.93934 25.5607C10.2206 25.842 10.6022 26 11 26H29C29.3978 26 29.7794 25.842 30.0607 25.5607C30.342 25.2794 30.5 24.8979 30.5 24.5V22.25C30.5039 20.8676 30.2328 19.4982 29.7027 18.2214C29.1725 16.9446 28.3938 15.786 27.4119 14.8129ZM29 24.5H19.2228L24.3566 17.4407C24.4737 17.2798 24.5221 17.079 24.4911 16.8824C24.4602 16.6859 24.3524 16.5097 24.1916 16.3925C24.0307 16.2754 23.8299 16.227 23.6333 16.258C23.4368 16.2889 23.2605 16.3967 23.1434 16.5575L17.3675 24.5H11V22.356C11 22.0672 11.0141 21.7822 11.0403 21.5H13.25C13.4489 21.5 13.6397 21.421 13.7803 21.2804C13.921 21.1397 14 20.949 14 20.75C14 20.5511 13.921 20.3604 13.7803 20.2197C13.6397 20.0791 13.4489 20 13.25 20H11.3066C12.2741 16.3569 15.4316 13.6025 19.25 13.2819V15.5C19.25 15.699 19.329 15.8897 19.4697 16.0304C19.6103 16.171 19.8011 16.25 20 16.25C20.1989 16.25 20.3897 16.171 20.5303 16.0304C20.671 15.8897 20.75 15.699 20.75 15.5V13.281C22.6106 13.4376 24.3767 14.1681 25.8042 15.3718C27.2316 16.5754 28.2501 18.1926 28.7188 20H26.75C26.5511 20 26.3603 20.0791 26.2197 20.2197C26.079 20.3604 26 20.5511 26 20.75C26 20.949 26.079 21.1397 26.2197 21.2804C26.3603 21.421 26.5511 21.5 26.75 21.5H28.9691C28.9888 21.7485 29 21.9979 29 22.25V24.5Z" fill="#016624"/>
</svg>
