<svg width="40" height="40" viewBox="0 0 40 40" fill="none" xmlns="http://www.w3.org/2000/svg">
<rect width="40" height="40" rx="8" fill="#00DD7D"/>
<path d="M24.875 21.5H23V18.5H24.875C25.5425 18.5 26.195 18.3021 26.7501 17.9312C27.3051 17.5604 27.7376 17.0333 27.9931 16.4166C28.2485 15.7999 28.3154 15.1213 28.1852 14.4666C28.0549 13.8119 27.7335 13.2105 27.2615 12.7385C26.7895 12.2665 26.1881 11.9451 25.5334 11.8149C24.8787 11.6846 24.2001 11.7515 23.5834 12.0069C22.9667 12.2624 22.4396 12.6949 22.0688 13.25C21.6979 13.805 21.5 14.4575 21.5 15.125V17H18.5V15.125C18.5 14.4575 18.3021 13.805 17.9312 13.25C17.5604 12.6949 17.0333 12.2624 16.4166 12.0069C15.7999 11.7515 15.1213 11.6846 14.4666 11.8149C13.8119 11.9451 13.2105 12.2665 12.7385 12.7385C12.2665 13.2105 11.9451 13.8119 11.8149 14.4666C11.6846 15.1213 11.7515 15.7999 12.0069 16.4166C12.2624 17.0333 12.6949 17.5604 13.25 17.9312C13.805 18.3021 14.4575 18.5 15.125 18.5H17V21.5H15.125C14.4575 21.5 13.805 21.6979 13.25 22.0688C12.6949 22.4396 12.2624 22.9667 12.0069 23.5834C11.7515 24.2001 11.6846 24.8787 11.8149 25.5334C11.9451 26.1881 12.2665 26.7895 12.7385 27.2615C13.2105 27.7335 13.8119 28.0549 14.4666 28.1852C15.1213 28.3154 15.7999 28.2485 16.4166 27.9931C17.0333 27.7376 17.5604 27.3051 17.9312 26.7501C18.3021 26.195 18.5 25.5425 18.5 24.875V23H21.5V24.875C21.5 25.5425 21.6979 26.195 22.0688 26.7501C22.4396 27.3051 22.9667 27.7376 23.5834 27.9931C24.2001 28.2485 24.8787 28.3154 25.5334 28.1852C26.1881 28.0549 26.7895 27.7335 27.2615 27.2615C27.7335 26.7895 28.0549 26.1881 28.1852 25.5334C28.3154 24.8787 28.2485 24.2001 27.9931 23.5834C27.7376 22.9667 27.3051 22.4396 26.7501 22.0688C26.195 21.6979 25.5425 21.5 24.875 21.5ZM23 15.125C23 14.7542 23.11 14.3916 23.316 14.0833C23.522 13.775 23.8149 13.5346 24.1575 13.3927C24.5001 13.2508 24.8771 13.2137 25.2408 13.286C25.6045 13.3584 25.9386 13.537 26.2008 13.7992C26.4631 14.0614 26.6416 14.3955 26.714 14.7592C26.7863 15.1229 26.7492 15.4999 26.6073 15.8425C26.4654 16.1851 26.225 16.478 25.9167 16.684C25.6084 16.89 25.2458 17 24.875 17H23V15.125ZM13.25 15.125C13.25 14.6277 13.4475 14.1508 13.7992 13.7992C14.1508 13.4475 14.6277 13.25 15.125 13.25C15.6223 13.25 16.0992 13.4475 16.4508 13.7992C16.8025 14.1508 17 14.6277 17 15.125V17H15.125C14.6277 17 14.1508 16.8025 13.7992 16.4508C13.4475 16.0992 13.25 15.6223 13.25 15.125ZM17 24.875C17 25.2458 16.89 25.6084 16.684 25.9167C16.478 26.225 16.1851 26.4654 15.8425 26.6073C15.4999 26.7492 15.1229 26.7863 14.7592 26.714C14.3955 26.6416 14.0614 26.4631 13.7992 26.2008C13.537 25.9386 13.3584 25.6045 13.286 25.2408C13.2137 24.8771 13.2508 24.5001 13.3927 24.1575C13.5346 23.8149 13.775 23.522 14.0833 23.316C14.3916 23.11 14.7542 23 15.125 23H17V24.875ZM18.5 18.5H21.5V21.5H18.5V18.5ZM24.875 26.75C24.3777 26.75 23.9008 26.5525 23.5492 26.2008C23.1975 25.8492 23 25.3723 23 24.875V23H24.875C25.3723 23 25.8492 23.1975 26.2008 23.5492C26.5525 23.9008 26.75 24.3777 26.75 24.875C26.75 25.3723 26.5525 25.8492 26.2008 26.2008C25.8492 26.5525 25.3723 26.75 24.875 26.75Z" fill="#016624"/>
</svg>
