<svg width="40" height="40" viewBox="0 0 40 40" fill="none" xmlns="http://www.w3.org/2000/svg">
<rect width="40" height="40" rx="8" fill="#00DD7D"/>
<path d="M29 12.5H11C10.6022 12.5 10.2206 12.658 9.93934 12.9393C9.65804 13.2206 9.5 13.6022 9.5 14V26C9.5 26.3978 9.65804 26.7794 9.93934 27.0607C10.2206 27.342 10.6022 27.5 11 27.5H29C29.3978 27.5 29.7794 27.342 30.0607 27.0607C30.342 26.7794 30.5 26.3978 30.5 26V14C30.5 13.6022 30.342 13.2206 30.0607 12.9393C29.7794 12.658 29.3978 12.5 29 12.5ZM29 26H11V14H29V26ZM27.5 20C27.5 20.1989 27.421 20.3897 27.2803 20.5303C27.1397 20.671 26.9489 20.75 26.75 20.75H13.25C13.0511 20.75 12.8603 20.671 12.7197 20.5303C12.579 20.3897 12.5 20.1989 12.5 20C12.5 19.8011 12.579 19.6103 12.7197 19.4697C12.8603 19.329 13.0511 19.25 13.25 19.25H26.75C26.9489 19.25 27.1397 19.329 27.2803 19.4697C27.421 19.6103 27.5 19.8011 27.5 20ZM27.5 17C27.5 17.1989 27.421 17.3897 27.2803 17.5303C27.1397 17.671 26.9489 17.75 26.75 17.75H13.25C13.0511 17.75 12.8603 17.671 12.7197 17.5303C12.579 17.3897 12.5 17.1989 12.5 17C12.5 16.8011 12.579 16.6103 12.7197 16.4697C12.8603 16.329 13.0511 16.25 13.25 16.25H26.75C26.9489 16.25 27.1397 16.329 27.2803 16.4697C27.421 16.6103 27.5 16.8011 27.5 17ZM14.75 23C14.75 23.1989 14.671 23.3897 14.5303 23.5303C14.3897 23.671 14.1989 23.75 14 23.75H13.25C13.0511 23.75 12.8603 23.671 12.7197 23.5303C12.579 23.3897 12.5 23.1989 12.5 23C12.5 22.8011 12.579 22.6103 12.7197 22.4697C12.8603 22.329 13.0511 22.25 13.25 22.25H14C14.1989 22.25 14.3897 22.329 14.5303 22.4697C14.671 22.6103 14.75 22.8011 14.75 23ZM23.75 23C23.75 23.1989 23.671 23.3897 23.5303 23.5303C23.3897 23.671 23.1989 23.75 23 23.75H17C16.8011 23.75 16.6103 23.671 16.4697 23.5303C16.329 23.3897 16.25 23.1989 16.25 23C16.25 22.8011 16.329 22.6103 16.4697 22.4697C16.6103 22.329 16.8011 22.25 17 22.25H23C23.1989 22.25 23.3897 22.329 23.5303 22.4697C23.671 22.6103 23.75 22.8011 23.75 23ZM27.5 23C27.5 23.1989 27.421 23.3897 27.2803 23.5303C27.1397 23.671 26.9489 23.75 26.75 23.75H26C25.8011 23.75 25.6103 23.671 25.4697 23.5303C25.329 23.3897 25.25 23.1989 25.25 23C25.25 22.8011 25.329 22.6103 25.4697 22.4697C25.6103 22.329 25.8011 22.25 26 22.25H26.75C26.9489 22.25 27.1397 22.329 27.2803 22.4697C27.421 22.6103 27.5 22.8011 27.5 23Z" fill="#016624"/>
</svg>
