<svg width="40" height="40" viewBox="0 0 40 40" fill="none" xmlns="http://www.w3.org/2000/svg">
<rect width="40" height="40" rx="8" fill="#00DD7D"/>
<path d="M29.3112 10.6885C29.1226 10.5 28.8871 10.3652 28.6291 10.298C28.371 10.2307 28.0997 10.2335 27.8431 10.306H27.829L9.83467 15.766C9.54254 15.8502 9.28289 16.0212 9.09013 16.2563C8.89736 16.4914 8.78059 16.7795 8.75527 17.0824C8.72996 17.3854 8.7973 17.6889 8.94837 17.9527C9.09945 18.2166 9.32713 18.4283 9.60123 18.5598L17.5625 22.4373L21.4344 30.3938C21.5548 30.6508 21.7463 30.868 21.9861 31.0196C22.226 31.1713 22.5043 31.2512 22.7881 31.2498C22.8312 31.2498 22.8744 31.2479 22.9175 31.2441C23.2202 31.2196 23.5082 31.1031 23.7428 30.9102C23.9774 30.7174 24.1474 30.4573 24.23 30.1651L29.6862 12.1707C29.6862 12.166 29.6862 12.1613 29.6862 12.1566C29.7597 11.9007 29.7636 11.6298 29.6977 11.3717C29.6318 11.1137 29.4984 10.8779 29.3112 10.6885ZM22.7965 29.7357L22.7919 29.7488V29.7423L19.0362 22.0266L23.5362 17.5266C23.6709 17.3848 23.7449 17.196 23.7424 17.0005C23.7399 16.8049 23.6611 16.618 23.5228 16.4797C23.3845 16.3414 23.1977 16.2626 23.0021 16.2601C22.8065 16.2576 22.6177 16.3316 22.4759 16.4663L17.9759 20.9663L10.2575 17.2107H10.2509H10.264L28.25 11.7498L22.7965 29.7357Z" fill="#016624"/>
</svg>
