<svg width="33" height="32" viewBox="0 0 33 32" fill="none" xmlns="http://www.w3.org/2000/svg">
<g filter="url(#filter0_i_915_8774)">
<rect x="0.5" width="32" height="32" rx="6" fill="url(#paint0_linear_915_8774)"/>
<rect x="1" y="0.5" width="31" height="31" rx="5.5" stroke="url(#paint1_linear_915_8774)"/>
<path d="M26.375 10.375C26.375 10.5408 26.3092 10.6997 26.1919 10.8169C26.0747 10.9342 25.9158 11 25.75 11H22V14.125C22 14.2908 21.9342 14.4497 21.8169 14.5669C21.6997 14.6842 21.5408 14.75 21.375 14.75H17.625V17.875C17.625 18.0408 17.5592 18.1997 17.4419 18.3169C17.3247 18.4342 17.1658 18.5 17 18.5H13.25V21.625C13.25 21.7908 13.1842 21.9497 13.0669 22.0669C12.9497 22.1842 12.7908 22.25 12.625 22.25H8.25C8.08424 22.25 7.92527 22.1842 7.80806 22.0669C7.69085 21.9497 7.625 21.7908 7.625 21.625C7.625 21.4592 7.69085 21.3003 7.80806 21.1831C7.92527 21.0658 8.08424 21 8.25 21H12V17.875C12 17.7092 12.0658 17.5503 12.1831 17.4331C12.3003 17.3158 12.4592 17.25 12.625 17.25H16.375V14.125C16.375 13.9592 16.4408 13.8003 16.5581 13.6831C16.6753 13.5658 16.8342 13.5 17 13.5H20.75V10.375C20.75 10.2092 20.8158 10.0503 20.9331 9.93306C21.0503 9.81585 21.2092 9.75 21.375 9.75H25.75C25.9158 9.75 26.0747 9.81585 26.1919 9.93306C26.3092 10.0503 26.375 10.2092 26.375 10.375Z" fill="#DEE04A"/>
</g>
<defs>
<filter id="filter0_i_915_8774" x="0.5" y="0" width="32" height="33" filterUnits="userSpaceOnUse" color-interpolation-filters="sRGB">
<feFlood flood-opacity="0" result="BackgroundImageFix"/>
<feBlend mode="normal" in="SourceGraphic" in2="BackgroundImageFix" result="shape"/>
<feColorMatrix in="SourceAlpha" type="matrix" values="0 0 0 0 0 0 0 0 0 0 0 0 0 0 0 0 0 0 127 0" result="hardAlpha"/>
<feOffset dy="1"/>
<feGaussianBlur stdDeviation="16"/>
<feComposite in2="hardAlpha" operator="arithmetic" k2="-1" k3="1"/>
<feColorMatrix type="matrix" values="0 0 0 0 0 0 0 0 0 0 0 0 0 0 0 0 0 0 0.25 0"/>
<feBlend mode="normal" in2="shape" result="effect1_innerShadow_915_8774"/>
</filter>
<linearGradient id="paint0_linear_915_8774" x1="-99.5" y1="-107.2" x2="85.7" y2="106.4" gradientUnits="userSpaceOnUse">
<stop offset="0.492986" stop-color="#23231D"/>
<stop offset="0.847063" stop-color="#DEE04A"/>
</linearGradient>
<linearGradient id="paint1_linear_915_8774" x1="16.5" y1="-12.4" x2="16.5" y2="64.8" gradientUnits="userSpaceOnUse">
<stop stop-color="#DEE04A"/>
<stop offset="0.65" stop-color="#555550"/>
</linearGradient>
</defs>
</svg>
