<svg width="33" height="32" viewBox="0 0 33 32" fill="none" xmlns="http://www.w3.org/2000/svg">
<g filter="url(#filter0_i_915_8089)">
<rect x="0.5" width="32" height="32" rx="6" fill="url(#paint0_linear_915_8089)"/>
<rect x="1" y="0.5" width="31" height="31" rx="5.5" stroke="url(#paint1_linear_915_8089)"/>
<path d="M24.9322 14.8281L19.976 13.0265L18.1744 8.07027C18.0856 7.83105 17.9257 7.62473 17.7162 7.47904C17.5067 7.33334 17.2577 7.25525 17.0025 7.25525C16.7473 7.25525 16.4983 7.33334 16.2888 7.47904C16.0793 7.62473 15.9194 7.83105 15.8306 8.07027L14.0291 13.0265L9.07283 14.8281C8.83361 14.9169 8.62729 15.0768 8.4816 15.2862C8.33591 15.4957 8.25781 15.7448 8.25781 16C8.25781 16.2551 8.33591 16.5042 8.4816 16.7137C8.62729 16.9232 8.83361 17.083 9.07283 17.1718L14.0291 18.9742L15.8306 23.9296C15.9194 24.1689 16.0793 24.3752 16.2888 24.5209C16.4983 24.6666 16.7473 24.7447 17.0025 24.7447C17.2577 24.7447 17.5067 24.6666 17.7162 24.5209C17.9257 24.3752 18.0856 24.1689 18.1744 23.9296L19.9767 18.9734L24.9322 17.1718C25.1714 17.083 25.3777 16.9232 25.5234 16.7137C25.6691 16.5042 25.7472 16.2551 25.7472 16C25.7472 15.7448 25.6691 15.4957 25.5234 15.2862C25.3777 15.0768 25.1714 14.9169 24.9322 14.8281ZM19.2744 17.8984C19.1887 17.9296 19.1108 17.9792 19.0463 18.0437C18.9818 18.1082 18.9322 18.1861 18.901 18.2718L17.0025 23.4921L15.1041 18.2718C15.0729 18.1861 15.0233 18.1082 14.9587 18.0437C14.8942 17.9792 14.8164 17.9296 14.7306 17.8984L9.51033 16L14.7306 14.1015C14.8164 14.0703 14.8942 14.0207 14.9587 13.9562C15.0233 13.8917 15.0729 13.8138 15.1041 13.7281L17.0025 8.50777L18.901 13.7281C18.9322 13.8138 18.9818 13.8917 19.0463 13.9562C19.1108 14.0207 19.1887 14.0703 19.2744 14.1015L24.4947 16L19.2744 17.8984Z" fill="#00DD7D"/>
</g>
<defs>
<filter id="filter0_i_915_8089" x="0.5" y="0" width="32" height="33" filterUnits="userSpaceOnUse" color-interpolation-filters="sRGB">
<feFlood flood-opacity="0" result="BackgroundImageFix"/>
<feBlend mode="normal" in="SourceGraphic" in2="BackgroundImageFix" result="shape"/>
<feColorMatrix in="SourceAlpha" type="matrix" values="0 0 0 0 0 0 0 0 0 0 0 0 0 0 0 0 0 0 127 0" result="hardAlpha"/>
<feOffset dy="1"/>
<feGaussianBlur stdDeviation="16"/>
<feComposite in2="hardAlpha" operator="arithmetic" k2="-1" k3="1"/>
<feColorMatrix type="matrix" values="0 0 0 0 0 0 0 0 0 0 0 0 0 0 0 0 0 0 0.25 0"/>
<feBlend mode="normal" in2="shape" result="effect1_innerShadow_915_8089"/>
</filter>
<linearGradient id="paint0_linear_915_8089" x1="-99.5" y1="-107.2" x2="85.7" y2="106.4" gradientUnits="userSpaceOnUse">
<stop offset="0.429472" stop-color="#001F11"/>
<stop offset="0.710902" stop-color="#007D47"/>
</linearGradient>
<linearGradient id="paint1_linear_915_8089" x1="16.5" y1="-12.4" x2="16.5" y2="64.8" gradientUnits="userSpaceOnUse">
<stop stop-color="#00CD74"/>
<stop offset="0.65" stop-color="#00673A"/>
</linearGradient>
</defs>
</svg>
