<svg width="40" height="40" viewBox="0 0 40 40" fill="none" xmlns="http://www.w3.org/2000/svg">
<rect width="40" height="40" rx="8" fill="#00DD7D"/>
<path d="M28.25 11.75H14.75C14.3522 11.75 13.9706 11.908 13.6893 12.1893C13.408 12.4706 13.25 12.8522 13.25 13.25V14.75H11.75C11.3522 14.75 10.9706 14.908 10.6893 15.1893C10.408 15.4706 10.25 15.8522 10.25 16.25V26.75C10.25 27.1478 10.408 27.5294 10.6893 27.8107C10.9706 28.092 11.3522 28.25 11.75 28.25H25.25C25.6478 28.25 26.0294 28.092 26.3107 27.8107C26.592 27.5294 26.75 27.1478 26.75 26.75V25.25H28.25C28.6478 25.25 29.0294 25.092 29.3107 24.8107C29.592 24.5294 29.75 24.1478 29.75 23.75V13.25C29.75 12.8522 29.592 12.4706 29.3107 12.1893C29.0294 11.908 28.6478 11.75 28.25 11.75ZM25.25 16.25V17.75H11.75V16.25H25.25ZM25.25 26.75H11.75V19.25H25.25V26.75ZM28.25 23.75H26.75V16.25C26.75 15.8522 26.592 15.4706 26.3107 15.1893C26.0294 14.908 25.6478 14.75 25.25 14.75H14.75V13.25H28.25V23.75Z" fill="#016624"/>
</svg>
