<svg width="40" height="40" viewBox="0 0 40 40" fill="none" xmlns="http://www.w3.org/2000/svg">
<rect width="40" height="40" rx="8" fill="#00DD7D"/>
<path d="M28.2269 19.0785C28.1985 18.9583 28.1409 18.8469 28.0591 18.7544C27.9773 18.6618 27.874 18.5908 27.7582 18.5478L22.3572 16.5219L23.7316 9.64721C23.7627 9.48748 23.7411 9.32197 23.6699 9.17564C23.5987 9.0293 23.4818 8.9101 23.3369 8.83602C23.192 8.76193 23.027 8.73698 22.8666 8.76493C22.7063 8.79288 22.5594 8.87222 22.4482 8.99096L11.9482 20.241C11.8629 20.3308 11.8012 20.4404 11.7686 20.5599C11.736 20.6795 11.7335 20.8052 11.7614 20.9259C11.7893 21.0466 11.8466 21.1585 11.9282 21.2517C12.0099 21.3448 12.1134 21.4163 12.2294 21.4597L17.6322 23.4857L16.2616 30.3528C16.2305 30.5126 16.2522 30.6781 16.3234 30.8244C16.3946 30.9708 16.5114 31.09 16.6563 31.164C16.8012 31.2381 16.9663 31.2631 17.1266 31.2351C17.2869 31.2072 17.4338 31.1278 17.5451 31.0091L28.0451 19.7591C28.1288 19.6692 28.1892 19.5601 28.2209 19.4415C28.2526 19.3228 28.2547 19.1981 28.2269 19.0785ZM18.2501 28.0625L19.2316 23.1519C19.2667 22.9777 19.2389 22.7968 19.1531 22.6412C19.0672 22.4857 18.9289 22.3656 18.7629 22.3025L13.8091 20.4416L21.7422 11.9422L20.7616 16.8528C20.7265 17.027 20.7543 17.208 20.8402 17.3635C20.926 17.5191 21.0643 17.6391 21.2304 17.7022L26.1804 19.5585L18.2501 28.0625Z" fill="#016624"/>
</svg>
