<svg width="40" height="40" viewBox="0 0 40 40" fill="none" xmlns="http://www.w3.org/2000/svg">
<rect width="40" height="40" rx="8" fill="#00DD7D"/>
<path d="M29 12.5H11C10.8011 12.5 10.6103 12.579 10.4697 12.7197C10.329 12.8603 10.25 13.0511 10.25 13.25V26C10.25 26.3978 10.408 26.7794 10.6893 27.0607C10.9706 27.342 11.3522 27.5 11.75 27.5H28.25C28.6478 27.5 29.0294 27.342 29.3107 27.0607C29.592 26.7794 29.75 26.3978 29.75 26V13.25C29.75 13.0511 29.671 12.8603 29.5303 12.7197C29.3897 12.579 29.1989 12.5 29 12.5ZM11.75 18.5H15.5V21.5H11.75V18.5ZM17 18.5H28.25V21.5H17V18.5ZM28.25 14V17H11.75V14H28.25ZM11.75 23H15.5V26H11.75V23ZM28.25 26H17V23H28.25V26Z" fill="#016624"/>
</svg>
