<svg width="40" height="40" viewBox="0 0 40 40" fill="none" xmlns="http://www.w3.org/2000/svg">
<rect width="40" height="40" rx="8" fill="#00DD7D"/>
<path d="M23.8972 14.8053C23.2184 13.2162 22.0118 11.9102 20.4812 11.1082C18.9506 10.3061 17.1901 10.0572 15.4971 10.4034C13.8042 10.7497 12.2827 11.6699 11.19 13.0085C10.0973 14.3471 9.5003 16.022 9.5 17.75V23.75C9.5 24.1478 9.65804 24.5294 9.93934 24.8107C10.2206 25.092 10.6022 25.25 11 25.25H16.1253C16.7106 26.5865 17.6723 27.7238 18.8931 28.5229C20.1139 29.322 21.5409 29.7484 23 29.75H29C29.3978 29.75 29.7794 29.592 30.0607 29.3107C30.342 29.0294 30.5 28.6478 30.5 28.25V22.25C30.4996 20.4165 29.8277 18.6466 28.6111 17.2749C27.3945 15.9032 25.7175 15.0246 23.8972 14.8053ZM11 17.75C11 16.5633 11.3519 15.4033 12.0112 14.4166C12.6705 13.4299 13.6075 12.6608 14.7039 12.2067C15.8003 11.7526 17.0067 11.6338 18.1705 11.8653C19.3344 12.0968 20.4035 12.6682 21.2426 13.5074C22.0818 14.3465 22.6532 15.4156 22.8847 16.5795C23.1162 17.7433 22.9974 18.9497 22.5433 20.0461C22.0892 21.1425 21.3201 22.0795 20.3334 22.7388C19.3467 23.3981 18.1867 23.75 17 23.75H11V17.75ZM29 28.25H23C21.939 28.2488 20.8973 27.9669 19.9805 27.4329C19.0637 26.8989 18.3045 26.1319 17.78 25.2097C18.8072 25.1031 19.8013 24.7853 20.6999 24.2763C21.5985 23.7673 22.3822 23.078 23.0018 22.2517C23.6213 21.4255 24.0634 20.48 24.3003 19.4748C24.5371 18.4696 24.5636 17.4263 24.3781 16.4103C25.6937 16.7208 26.8659 17.4664 27.7048 18.5263C28.5436 19.5862 29 20.8983 29 22.25V28.25Z" fill="#016624"/>
</svg>
