<svg width="40" height="40" viewBox="0 0 40 40" fill="none" xmlns="http://www.w3.org/2000/svg">
<rect width="40" height="40" rx="8" fill="#00DD7D"/>
<path d="M26 14.75C26 14.9489 25.921 15.1397 25.7803 15.2803C25.6397 15.421 25.4489 15.5 25.25 15.5H23C22.8011 15.5 22.6103 15.421 22.4697 15.2803C22.329 15.1397 22.25 14.9489 22.25 14.75C22.25 14.5511 22.329 14.3603 22.4697 14.2197C22.6103 14.079 22.8011 14 23 14H25.25C25.4489 14 25.6397 14.079 25.7803 14.2197C25.921 14.3603 26 14.5511 26 14.75ZM25.25 17H23C22.8011 17 22.6103 17.079 22.4697 17.2197C22.329 17.3603 22.25 17.5511 22.25 17.75C22.25 17.9489 22.329 18.1397 22.4697 18.2803C22.6103 18.421 22.8011 18.5 23 18.5H25.25C25.4489 18.5 25.6397 18.421 25.7803 18.2803C25.921 18.1397 26 17.9489 26 17.75C26 17.5511 25.921 17.3603 25.7803 17.2197C25.6397 17.079 25.4489 17 25.25 17ZM14.75 15.5H17C17.1989 15.5 17.3897 15.421 17.5303 15.2803C17.671 15.1397 17.75 14.9489 17.75 14.75C17.75 14.5511 17.671 14.3603 17.5303 14.2197C17.3897 14.079 17.1989 14 17 14H14.75C14.5511 14 14.3603 14.079 14.2197 14.2197C14.079 14.3603 14 14.5511 14 14.75C14 14.9489 14.079 15.1397 14.2197 15.2803C14.3603 15.421 14.5511 15.5 14.75 15.5ZM17 17H14.75C14.5511 17 14.3603 17.079 14.2197 17.2197C14.079 17.3603 14 17.5511 14 17.75C14 17.9489 14.079 18.1397 14.2197 18.2803C14.3603 18.421 14.5511 18.5 14.75 18.5H17C17.1989 18.5 17.3897 18.421 17.5303 18.2803C17.671 18.1397 17.75 17.9489 17.75 17.75C17.75 17.5511 17.671 17.3603 17.5303 17.2197C17.3897 17.079 17.1989 17 17 17ZM29 12.5V29C29 29.1989 28.921 29.3897 28.7803 29.5303C28.6397 29.671 28.4489 29.75 28.25 29.75C28.0511 29.75 27.8603 29.671 27.7197 29.5303C27.579 29.3897 27.5 29.1989 27.5 29V27.5H20.75V29C20.75 29.1989 20.671 29.3897 20.5303 29.5303C20.3897 29.671 20.1989 29.75 20 29.75C19.8011 29.75 19.6103 29.671 19.4697 29.5303C19.329 29.3897 19.25 29.1989 19.25 29V27.5H12.5V29C12.5 29.1989 12.421 29.3897 12.2803 29.5303C12.1397 29.671 11.9489 29.75 11.75 29.75C11.5511 29.75 11.3603 29.671 11.2197 29.5303C11.079 29.3897 11 29.1989 11 29V12.5C11 12.1022 11.158 11.7206 11.4393 11.4393C11.7206 11.158 12.1022 11 12.5 11H27.5C27.8978 11 28.2794 11.158 28.5607 11.4393C28.842 11.7206 29 12.1022 29 12.5ZM19.25 26V12.5H12.5V26H19.25ZM20.75 26H27.5V12.5H20.75V26Z" fill="#016624"/>
</svg>
