<svg width="40" height="40" viewBox="0 0 40 40" fill="none" xmlns="http://www.w3.org/2000/svg">
<rect width="40" height="40" rx="8" fill="#00DD7D"/>
<path d="M24.5 9.5H15.5C14.9033 9.5 14.331 9.73705 13.909 10.159C13.4871 10.581 13.25 11.1533 13.25 11.75V28.25C13.25 28.8467 13.4871 29.419 13.909 29.841C14.331 30.2629 14.9033 30.5 15.5 30.5H24.5C25.0967 30.5 25.669 30.2629 26.091 29.841C26.5129 29.419 26.75 28.8467 26.75 28.25V11.75C26.75 11.1533 26.5129 10.581 26.091 10.159C25.669 9.73705 25.0967 9.5 24.5 9.5ZM25.25 28.25C25.25 28.4489 25.171 28.6397 25.0303 28.7803C24.8897 28.921 24.6989 29 24.5 29H15.5C15.3011 29 15.1103 28.921 14.9697 28.7803C14.829 28.6397 14.75 28.4489 14.75 28.25V11.75C14.75 11.5511 14.829 11.3603 14.9697 11.2197C15.1103 11.079 15.3011 11 15.5 11H24.5C24.6989 11 24.8897 11.079 25.0303 11.2197C25.171 11.3603 25.25 11.5511 25.25 11.75V28.25ZM21.125 13.625C21.125 13.8475 21.059 14.065 20.9354 14.25C20.8118 14.435 20.6361 14.5792 20.4305 14.6644C20.225 14.7495 19.9988 14.7718 19.7805 14.7284C19.5623 14.685 19.3618 14.5778 19.2045 14.4205C19.0472 14.2632 18.94 14.0627 18.8966 13.8445C18.8532 13.6262 18.8755 13.4 18.9606 13.1945C19.0458 12.9889 19.19 12.8132 19.375 12.6896C19.56 12.566 19.7775 12.5 20 12.5C20.2984 12.5 20.5845 12.6185 20.7955 12.8295C21.0065 13.0405 21.125 13.3266 21.125 13.625Z" fill="#016624"/>
</svg>
