<svg width="40" height="40" viewBox="0 0 40 40" fill="none" xmlns="http://www.w3.org/2000/svg">
<rect width="40" height="40" rx="8" fill="#00DD7D"/>
<path d="M30.9503 22.1C30.8715 22.1591 30.7818 22.2021 30.6864 22.2265C30.591 22.251 30.4917 22.2564 30.3942 22.2424C30.2967 22.2285 30.2029 22.1955 30.1182 22.1453C30.0334 22.0952 29.9594 22.0288 29.9003 21.95C29.4482 21.3424 28.8598 20.8493 28.1824 20.5107C27.5051 20.172 26.7576 19.997 26.0003 20C25.8528 20 25.7086 19.9565 25.5857 19.8749C25.4628 19.7934 25.3667 19.6774 25.3093 19.5415C25.2704 19.4493 25.2504 19.3501 25.2504 19.25C25.2504 19.1498 25.2704 19.0507 25.3093 18.9584C25.3667 18.8225 25.4628 18.7066 25.5857 18.625C25.7086 18.5435 25.8528 18.5 26.0003 18.5C26.4211 18.4999 26.8335 18.3819 27.1906 18.1592C27.5476 17.9366 27.8351 17.6183 28.0204 17.2404C28.2056 16.8625 28.2812 16.4403 28.2385 16.0217C28.1958 15.603 28.0365 15.2047 27.7788 14.8721C27.5211 14.5394 27.1753 14.2857 26.7806 14.1397C26.3859 13.9937 25.9582 13.9614 25.546 14.0463C25.1338 14.1312 24.7538 14.33 24.4489 14.6201C24.1441 14.9102 23.9267 15.28 23.8215 15.6875C23.7969 15.7829 23.7537 15.8725 23.6945 15.9513C23.6352 16.03 23.561 16.0963 23.4761 16.1463C23.3913 16.1964 23.2974 16.2292 23.1998 16.243C23.1022 16.2568 23.0029 16.2512 22.9075 16.2265C22.8121 16.2019 22.7224 16.1587 22.6437 16.0995C22.565 16.0402 22.4987 15.966 22.4486 15.8812C22.3986 15.7963 22.3657 15.7024 22.352 15.6048C22.3382 15.5072 22.3438 15.4079 22.3684 15.3125C22.5144 14.7475 22.7903 14.2243 23.1741 13.7847C23.5579 13.3451 24.039 13.0011 24.5791 12.7801C25.1192 12.5591 25.7034 12.4672 26.2853 12.5117C26.8672 12.5563 27.4307 12.736 27.9309 13.0366C28.431 13.3372 28.8542 13.7505 29.1666 14.2434C29.479 14.7363 29.672 15.2953 29.7303 15.876C29.7887 16.4567 29.7107 17.0429 29.5026 17.5881C29.2944 18.1333 28.9619 18.6224 28.5315 19.0165C29.5514 19.4581 30.4379 20.1588 31.1031 21.049C31.1622 21.128 31.2051 21.2179 31.2294 21.3135C31.2537 21.4091 31.2589 21.5086 31.2447 21.6062C31.2305 21.7038 31.1972 21.7977 31.1467 21.8824C31.0962 21.9672 31.0294 22.0411 30.9503 22.1ZM25.899 27.875C25.9533 27.9603 25.9897 28.0558 26.0062 28.1556C26.0226 28.2554 26.0186 28.3575 25.9946 28.4558C25.9705 28.554 25.9268 28.6464 25.8661 28.7273C25.8054 28.8082 25.729 28.876 25.6414 28.9267C25.5539 28.9773 25.4569 29.0097 25.3565 29.0219C25.2561 29.0341 25.1543 29.0258 25.0571 28.9976C24.96 28.9695 24.8695 28.9219 24.7912 28.8579C24.713 28.7938 24.6484 28.7146 24.6015 28.625C24.1291 27.825 23.4562 27.162 22.6493 26.7014C21.8424 26.2409 20.9294 25.9986 20.0003 25.9986C19.0712 25.9986 18.1582 26.2409 17.3513 26.7014C16.5444 27.162 15.8715 27.825 15.399 28.625C15.3521 28.7146 15.2876 28.7938 15.2093 28.8579C15.131 28.9219 15.0406 28.9695 14.9434 28.9976C14.8463 29.0258 14.7444 29.0341 14.644 29.0219C14.5436 29.0097 14.4467 28.9773 14.3591 28.9267C14.2716 28.876 14.1951 28.8082 14.1344 28.7273C14.0738 28.6464 14.0301 28.554 14.006 28.4558C13.9819 28.3575 13.978 28.2554 13.9944 28.1556C14.0108 28.0558 14.0473 27.9603 14.1015 27.875C14.8287 26.6257 15.9373 25.6425 17.2647 25.07C16.5178 24.4981 15.9689 23.7066 15.6951 22.8067C15.4213 21.9068 15.4364 20.9437 15.7383 20.0528C16.0402 19.1619 16.6137 18.388 17.3782 17.8399C18.1426 17.2918 19.0596 16.997 20.0003 16.997C20.9409 16.997 21.8579 17.2918 22.6224 17.8399C23.3869 18.388 23.9603 19.1619 24.2622 20.0528C24.5641 20.9437 24.5792 21.9068 24.3055 22.8067C24.0317 23.7066 23.4828 24.4981 22.7359 25.07C24.0632 25.6425 25.1719 26.6257 25.899 27.875ZM20.0003 24.5C20.5936 24.5 21.1736 24.324 21.667 23.9944C22.1603 23.6647 22.5449 23.1962 22.7719 22.648C22.999 22.0999 23.0584 21.4967 22.9426 20.9147C22.8269 20.3328 22.5412 19.7982 22.1216 19.3787C21.702 18.9591 21.1675 18.6734 20.5856 18.5576C20.0036 18.4419 19.4004 18.5013 18.8522 18.7283C18.3041 18.9554 17.8355 19.3399 17.5059 19.8333C17.1762 20.3266 17.0003 20.9066 17.0003 21.5C17.0003 22.2956 17.3164 23.0587 17.879 23.6213C18.4416 24.1839 19.2046 24.5 20.0003 24.5ZM14.7503 19.25C14.7503 19.0511 14.6713 18.8603 14.5306 18.7197C14.39 18.579 14.1992 18.5 14.0003 18.5C13.5795 18.4999 13.1671 18.3819 12.81 18.1592C12.4529 17.9366 12.1654 17.6183 11.9802 17.2404C11.795 16.8625 11.7194 16.4403 11.7621 16.0217C11.8048 15.603 11.964 15.2047 12.2218 14.8721C12.4795 14.5394 12.8253 14.2857 13.22 14.1397C13.6147 13.9937 14.0424 13.9614 14.4546 14.0463C14.8667 14.1312 15.2468 14.33 15.5516 14.6201C15.8565 14.9102 16.0738 15.28 16.179 15.6875C16.2288 15.8802 16.353 16.0452 16.5244 16.1463C16.6958 16.2474 16.9004 16.2763 17.0931 16.2265C17.2858 16.1768 17.4508 16.0526 17.5519 15.8812C17.653 15.7097 17.6819 15.5052 17.6322 15.3125C17.4861 14.7475 17.2103 14.2243 16.8265 13.7847C16.4427 13.3451 15.9616 13.0011 15.4215 12.7801C14.8814 12.5591 14.2971 12.4672 13.7152 12.5117C13.1334 12.5563 12.5699 12.736 12.0697 13.0366C11.5695 13.3372 11.1464 13.7505 10.834 14.2434C10.5216 14.7363 10.3286 15.2953 10.2702 15.876C10.2119 16.4567 10.2899 17.0429 10.498 17.5881C10.7061 18.1333 11.0386 18.6224 11.469 19.0165C10.4502 19.4585 9.5647 20.1592 8.90028 21.049C8.78081 21.2082 8.72945 21.4082 8.75749 21.6052C8.78553 21.8023 8.89069 21.98 9.04982 22.0995C9.20895 22.219 9.40902 22.2704 9.60602 22.2423C9.80302 22.2143 9.98081 22.1091 10.1003 21.95C10.5523 21.3424 11.1407 20.8493 11.8181 20.5107C12.4955 20.172 13.2429 19.997 14.0003 20C14.1992 20 14.39 19.921 14.5306 19.7803C14.6713 19.6397 14.7503 19.4489 14.7503 19.25Z" fill="#016624"/>
</svg>
