<svg width="40" height="40" viewBox="0 0 40 40" fill="none" xmlns="http://www.w3.org/2000/svg">
<rect width="40" height="40" rx="8" fill="#00DD7D"/>
<path d="M29.7522 20.8119C29.5929 22.6643 28.9078 24.4328 27.7775 25.9091C26.6472 27.3854 25.1188 28.5083 23.3721 29.1455C21.6254 29.7827 19.733 29.9077 17.9176 29.506C16.1022 29.1042 14.4394 28.1923 13.1246 26.8776C11.8099 25.5628 10.898 23.9 10.4962 22.0846C10.0945 20.2692 10.2195 18.3768 10.8567 16.6301C11.4939 14.8834 12.6168 13.355 14.0931 12.2247C15.5694 11.0944 17.3379 10.4093 19.1903 10.25C19.2888 10.2419 19.388 10.2532 19.4821 10.2834C19.5762 10.3136 19.6634 10.362 19.7388 10.4259C19.8142 10.4898 19.8762 10.5679 19.9214 10.6558C19.9666 10.7437 19.9941 10.8396 20.0022 10.9381C20.0103 11.0366 19.999 11.1357 19.9688 11.2298C19.9386 11.3239 19.8902 11.4112 19.8263 11.4866C19.7624 11.562 19.6843 11.624 19.5964 11.6692C19.5085 11.7144 19.4126 11.7419 19.3141 11.75C17.7462 11.8847 16.2494 12.4644 14.9998 13.421C13.7502 14.3775 12.7998 15.671 12.2605 17.1494C11.7211 18.6277 11.6152 20.2293 11.9552 21.7658C12.2952 23.3023 13.067 24.7097 14.1797 25.8225C15.2925 26.9352 16.6999 27.707 18.2364 28.047C19.7729 28.387 21.3745 28.2811 22.8528 27.7417C24.3312 27.2024 25.6247 26.252 26.5812 25.0024C27.5378 23.7528 28.1175 22.256 28.2522 20.6881C28.2686 20.4892 28.3634 20.3049 28.5156 20.1759C28.6679 20.0469 28.8652 19.9836 29.0641 20C29.263 20.0164 29.4473 20.1111 29.5763 20.2634C29.7053 20.4157 29.7686 20.6129 29.7522 20.8119ZM19.2522 14.75V20C19.2522 20.1989 19.3312 20.3897 19.4719 20.5303C19.6125 20.671 19.8033 20.75 20.0022 20.75H25.2522C25.4511 20.75 25.6419 20.671 25.7825 20.5303C25.9232 20.3897 26.0022 20.1989 26.0022 20C26.0022 19.8011 25.9232 19.6103 25.7825 19.4697C25.6419 19.329 25.4511 19.25 25.2522 19.25H20.7522V14.75C20.7522 14.5511 20.6732 14.3603 20.5325 14.2197C20.3919 14.079 20.2011 14 20.0022 14C19.8033 14 19.6125 14.079 19.4719 14.2197C19.3312 14.3603 19.2522 14.5511 19.2522 14.75ZM23.0022 12.5C23.2247 12.5 23.4422 12.434 23.6272 12.3104C23.8122 12.1868 23.9564 12.0111 24.0416 11.8055C24.1267 11.5999 24.149 11.3737 24.1056 11.1555C24.0622 10.9373 23.955 10.7368 23.7977 10.5795C23.6404 10.4222 23.4399 10.315 23.2217 10.2716C23.0035 10.2282 22.7773 10.2505 22.5717 10.3356C22.3661 10.4208 22.1904 10.565 22.0668 10.75C21.9432 10.935 21.8772 11.1525 21.8772 11.375C21.8772 11.6734 21.9957 11.9595 22.2067 12.1705C22.4177 12.3815 22.7038 12.5 23.0022 12.5ZM26.3772 14.75C26.5997 14.75 26.8172 14.684 27.0022 14.5604C27.1872 14.4368 27.3314 14.2611 27.4166 14.0555C27.5017 13.8499 27.524 13.6237 27.4806 13.4055C27.4372 13.1873 27.33 12.9868 27.1727 12.8295C27.0154 12.6722 26.8149 12.565 26.5967 12.5216C26.3785 12.4782 26.1523 12.5005 25.9467 12.5856C25.7411 12.6708 25.5654 12.815 25.4418 13C25.3182 13.185 25.2522 13.4025 25.2522 13.625C25.2522 13.9234 25.3707 14.2095 25.5817 14.4205C25.7927 14.6315 26.0788 14.75 26.3772 14.75ZM28.6272 18.125C28.8497 18.125 29.0672 18.059 29.2522 17.9354C29.4372 17.8118 29.5814 17.6361 29.6666 17.4305C29.7517 17.2249 29.774 16.9987 29.7306 16.7805C29.6872 16.5623 29.58 16.3618 29.4227 16.2045C29.2654 16.0472 29.0649 15.94 28.8467 15.8966C28.6285 15.8532 28.4023 15.8755 28.1967 15.9606C27.9911 16.0458 27.8154 16.19 27.6918 16.375C27.5682 16.56 27.5022 16.7775 27.5022 17C27.5022 17.2984 27.6207 17.5845 27.8317 17.7955C28.0427 18.0065 28.3288 18.125 28.6272 18.125Z" fill="#016624"/>
</svg>
