<svg width="40" height="40" viewBox="0 0 40 40" fill="none" xmlns="http://www.w3.org/2000/svg">
<rect width="40" height="40" rx="8" fill="#00DD7D"/>
<path d="M26.75 12.5H20.75V9.5C20.75 9.30109 20.671 9.11032 20.5303 8.96967C20.3897 8.82902 20.1989 8.75 20 8.75C19.8011 8.75 19.6103 8.82902 19.4697 8.96967C19.329 9.11032 19.25 9.30109 19.25 9.5V12.5H13.25C12.4544 12.5 11.6913 12.8161 11.1287 13.3787C10.5661 13.9413 10.25 14.7044 10.25 15.5V26C10.25 26.7956 10.5661 27.5587 11.1287 28.1213C11.6913 28.6839 12.4544 29 13.25 29H26.75C27.5456 29 28.3087 28.6839 28.8713 28.1213C29.4339 27.5587 29.75 26.7956 29.75 26V15.5C29.75 14.7044 29.4339 13.9413 28.8713 13.3787C28.3087 12.8161 27.5456 12.5 26.75 12.5ZM28.25 26C28.25 26.3978 28.092 26.7794 27.8107 27.0607C27.5294 27.342 27.1478 27.5 26.75 27.5H13.25C12.8522 27.5 12.4706 27.342 12.1893 27.0607C11.908 26.7794 11.75 26.3978 11.75 26V15.5C11.75 15.1022 11.908 14.7206 12.1893 14.4393C12.4706 14.158 12.8522 14 13.25 14H26.75C27.1478 14 27.5294 14.158 27.8107 14.4393C28.092 14.7206 28.25 15.1022 28.25 15.5V26ZM23.375 20.75H16.625C15.9288 20.75 15.2611 21.0266 14.7688 21.5188C14.2766 22.0111 14 22.6788 14 23.375C14 24.0712 14.2766 24.7389 14.7688 25.2312C15.2611 25.7234 15.9288 26 16.625 26H23.375C24.0712 26 24.7389 25.7234 25.2312 25.2312C25.7234 24.7389 26 24.0712 26 23.375C26 22.6788 25.7234 22.0111 25.2312 21.5188C24.7389 21.0266 24.0712 20.75 23.375 20.75ZM21.125 22.25V24.5H18.875V22.25H21.125ZM15.5 23.375C15.5 23.0766 15.6185 22.7905 15.8295 22.5795C16.0405 22.3685 16.3266 22.25 16.625 22.25H17.375V24.5H16.625C16.3266 24.5 16.0405 24.3815 15.8295 24.1705C15.6185 23.9595 15.5 23.6734 15.5 23.375ZM23.375 24.5H22.625V22.25H23.375C23.6734 22.25 23.9595 22.3685 24.1705 22.5795C24.3815 22.7905 24.5 23.0766 24.5 23.375C24.5 23.6734 24.3815 23.9595 24.1705 24.1705C23.9595 24.3815 23.6734 24.5 23.375 24.5ZM14.75 18.125C14.75 17.9025 14.816 17.685 14.9396 17.5C15.0632 17.315 15.2389 17.1708 15.4445 17.0856C15.65 17.0005 15.8762 16.9782 16.0945 17.0216C16.3127 17.065 16.5132 17.1722 16.6705 17.3295C16.8278 17.4868 16.935 17.6873 16.9784 17.9055C17.0218 18.1238 16.9995 18.35 16.9144 18.5555C16.8292 18.7611 16.685 18.9368 16.5 19.0604C16.315 19.184 16.0975 19.25 15.875 19.25C15.5766 19.25 15.2905 19.1315 15.0795 18.9205C14.8685 18.7095 14.75 18.4234 14.75 18.125ZM23 18.125C23 17.9025 23.066 17.685 23.1896 17.5C23.3132 17.315 23.4889 17.1708 23.6945 17.0856C23.9 17.0005 24.1262 16.9782 24.3445 17.0216C24.5627 17.065 24.7632 17.1722 24.9205 17.3295C25.0778 17.4868 25.185 17.6873 25.2284 17.9055C25.2718 18.1238 25.2495 18.35 25.1644 18.5555C25.0792 18.7611 24.935 18.9368 24.75 19.0604C24.565 19.184 24.3475 19.25 24.125 19.25C23.8266 19.25 23.5405 19.1315 23.3295 18.9205C23.1185 18.7095 23 18.4234 23 18.125Z" fill="#016624"/>
</svg>
