<svg width="20" height="20" viewBox="0 0 20 20" fill="none" xmlns="http://www.w3.org/2000/svg">
<path d="M9.1627 12.3374C10.0004 11.7798 10.6363 10.9674 10.9765 10.0203C11.3167 9.07325 11.3431 8.04185 11.0518 7.07862C10.7605 6.1154 10.167 5.27149 9.35897 4.67169C8.55095 4.07189 7.57135 3.74805 6.56504 3.74805C5.55873 3.74805 4.57914 4.07189 3.77111 4.67169C2.96309 5.27149 2.36954 6.1154 2.07824 7.07862C1.78693 8.04185 1.81334 9.07325 2.15356 10.0203C2.49377 10.9674 3.12973 11.7798 3.96738 12.3374C2.45214 12.8959 1.15809 13.9293 0.278322 15.2835C0.232085 15.3523 0.199968 15.4295 0.183839 15.5107C0.16771 15.592 0.167891 15.6756 0.18437 15.7568C0.20085 15.838 0.2333 15.915 0.279834 15.9836C0.326368 16.0521 0.386058 16.1107 0.455434 16.1559C0.52481 16.2012 0.602488 16.2322 0.683954 16.2472C0.765419 16.2621 0.849047 16.2607 0.929976 16.2431C1.0109 16.2255 1.08752 16.1919 1.15537 16.1444C1.22322 16.0969 1.28094 16.0364 1.3252 15.9664C1.89269 15.0935 2.66923 14.3763 3.58429 13.8798C4.49935 13.3833 5.52395 13.1232 6.56504 13.1232C7.60613 13.1232 8.63073 13.3833 9.54579 13.8798C10.4609 14.3763 11.2374 15.0935 11.8049 15.9664C11.8966 16.1026 12.0382 16.1973 12.1991 16.23C12.36 16.2626 12.5273 16.2307 12.6649 16.1409C12.8024 16.0512 12.8991 15.911 12.9341 15.7506C12.9691 15.5901 12.9395 15.4224 12.8518 15.2835C11.972 13.9293 10.6779 12.8959 9.1627 12.3374ZM3.12754 8.43745C3.12754 7.75758 3.32915 7.09297 3.70686 6.52768C4.08458 5.96238 4.62145 5.52179 5.24957 5.26161C5.87769 5.00144 6.56885 4.93336 7.23566 5.066C7.90247 5.19864 8.51498 5.52603 8.99572 6.00677C9.47646 6.48751 9.80385 7.10002 9.93649 7.76683C10.0691 8.43363 10.0011 9.1248 9.74088 9.75292C9.4807 10.381 9.04011 10.9179 8.47481 11.2956C7.90952 11.6733 7.24491 11.8749 6.56504 11.8749C5.65368 11.8739 4.77994 11.5114 4.1355 10.867C3.49107 10.2226 3.12858 9.34881 3.12754 8.43745ZM19.5447 16.1484C19.4059 16.2389 19.2368 16.2706 19.0746 16.2365C18.9124 16.2023 18.7704 16.1052 18.6799 15.9664C18.1131 15.093 17.3366 14.3755 16.4214 13.8791C15.5061 13.3828 14.4812 13.1236 13.44 13.1249C13.2743 13.1249 13.1153 13.0591 12.9981 12.9419C12.8809 12.8247 12.815 12.6657 12.815 12.4999C12.815 12.3342 12.8809 12.1752 12.9981 12.058C13.1153 11.9408 13.2743 11.8749 13.44 11.8749C13.9463 11.8745 14.4461 11.7622 14.9039 11.5461C15.3617 11.3301 15.7662 11.0156 16.0883 10.6251C16.4105 10.2346 16.6424 9.77779 16.7676 9.28727C16.8927 8.79676 16.908 8.28466 16.8123 7.78756C16.7166 7.29047 16.5123 6.82064 16.214 6.41166C15.9156 6.00268 15.5307 5.66464 15.0865 5.42169C14.6424 5.17874 14.1501 5.03688 13.6448 5.00625C13.1395 4.97562 12.6337 5.05696 12.1635 5.24448C12.0868 5.27762 12.0043 5.29506 11.9208 5.29577C11.8372 5.29647 11.7544 5.28043 11.6772 5.24859C11.6 5.21675 11.5299 5.16975 11.4712 5.11038C11.4124 5.05101 11.3662 4.98046 11.3352 4.90291C11.3042 4.82536 11.289 4.74238 11.2906 4.65887C11.2922 4.57536 11.3105 4.49302 11.3445 4.41671C11.3784 4.3404 11.4273 4.27167 11.4883 4.21458C11.5493 4.15749 11.621 4.1132 11.6994 4.08432C12.7756 3.65514 13.9725 3.6397 15.0594 4.04097C16.1462 4.44224 17.046 5.23179 17.585 6.2573C18.1241 7.28282 18.2643 8.47164 17.9786 9.59442C17.6928 10.7172 17.0014 11.6944 16.0377 12.3374C17.5529 12.8959 18.847 13.9293 19.7268 15.2835C19.8173 15.4224 19.849 15.5915 19.8148 15.7537C19.7807 15.9158 19.6835 16.0578 19.5447 16.1484Z" fill="#DEE04A"/>
</svg>
